<mxfile host="Electron" agent="Mozilla/5.0 (Macintosh; Intel Mac OS X 10_15_7) AppleWebKit/537.36 (KHTML, like Gecko) draw.io/28.1.2 Chrome/138.0.7204.243 Electron/37.4.0 Safari/537.36" version="28.1.2" pages="8">
  <diagram id="bg0Q1WrWWC46wLkk-2Yy" name="StrictDoc&#39;s own traceability">
    <mxGraphModel dx="-121" dy="579" grid="1" gridSize="10" guides="1" tooltips="1" connect="1" arrows="1" fold="1" page="1" pageScale="1" pageWidth="827" pageHeight="1169" math="0" shadow="0">
      <root>
        <mxCell id="0" />
        <mxCell id="1" parent="0" />
        <mxCell id="zAIG83uWjQyKsGUuBP41-26" style="edgeStyle=orthogonalEdgeStyle;rounded=0;orthogonalLoop=1;jettySize=auto;html=1;exitX=0.5;exitY=1;exitDx=0;exitDy=0;" parent="1" source="zAIG83uWjQyKsGUuBP41-23" target="zAIG83uWjQyKsGUuBP41-25" edge="1">
          <mxGeometry relative="1" as="geometry" />
        </mxCell>
        <mxCell id="zAIG83uWjQyKsGUuBP41-28" style="edgeStyle=orthogonalEdgeStyle;rounded=0;orthogonalLoop=1;jettySize=auto;html=1;exitX=0.5;exitY=1;exitDx=0;exitDy=0;" parent="1" source="zAIG83uWjQyKsGUuBP41-23" target="zAIG83uWjQyKsGUuBP41-27" edge="1">
          <mxGeometry relative="1" as="geometry" />
        </mxCell>
        <mxCell id="zAIG83uWjQyKsGUuBP41-23" value="Feature 1" style="rounded=0;whiteSpace=wrap;html=1;" parent="1" vertex="1">
          <mxGeometry x="2680" y="760" width="120" height="60" as="geometry" />
        </mxCell>
        <mxCell id="zAIG83uWjQyKsGUuBP41-29" style="edgeStyle=orthogonalEdgeStyle;rounded=0;orthogonalLoop=1;jettySize=auto;html=1;exitX=0.5;exitY=1;exitDx=0;exitDy=0;" parent="1" source="zAIG83uWjQyKsGUuBP41-24" target="zAIG83uWjQyKsGUuBP41-23" edge="1">
          <mxGeometry relative="1" as="geometry" />
        </mxCell>
        <mxCell id="zAIG83uWjQyKsGUuBP41-24" value="Requirement 1" style="rounded=0;whiteSpace=wrap;html=1;" parent="1" vertex="1">
          <mxGeometry x="2680" y="650" width="120" height="60" as="geometry" />
        </mxCell>
        <mxCell id="zAIG83uWjQyKsGUuBP41-31" style="edgeStyle=orthogonalEdgeStyle;rounded=0;orthogonalLoop=1;jettySize=auto;html=1;exitX=0.5;exitY=1;exitDx=0;exitDy=0;" parent="1" source="zAIG83uWjQyKsGUuBP41-25" target="zAIG83uWjQyKsGUuBP41-30" edge="1">
          <mxGeometry relative="1" as="geometry" />
        </mxCell>
        <mxCell id="zAIG83uWjQyKsGUuBP41-33" style="edgeStyle=orthogonalEdgeStyle;rounded=0;orthogonalLoop=1;jettySize=auto;html=1;exitX=0.5;exitY=1;exitDx=0;exitDy=0;" parent="1" source="zAIG83uWjQyKsGUuBP41-25" target="zAIG83uWjQyKsGUuBP41-32" edge="1">
          <mxGeometry relative="1" as="geometry" />
        </mxCell>
        <mxCell id="zAIG83uWjQyKsGUuBP41-25" value="Requirement 1" style="rounded=0;whiteSpace=wrap;html=1;" parent="1" vertex="1">
          <mxGeometry x="2570" y="880" width="120" height="60" as="geometry" />
        </mxCell>
        <mxCell id="zAIG83uWjQyKsGUuBP41-27" value="Requirement 2" style="rounded=0;whiteSpace=wrap;html=1;" parent="1" vertex="1">
          <mxGeometry x="2775" y="880" width="120" height="60" as="geometry" />
        </mxCell>
        <mxCell id="zAIG83uWjQyKsGUuBP41-44" style="edgeStyle=orthogonalEdgeStyle;rounded=0;orthogonalLoop=1;jettySize=auto;html=1;exitX=0.5;exitY=1;exitDx=0;exitDy=0;" parent="1" source="zAIG83uWjQyKsGUuBP41-30" target="zAIG83uWjQyKsGUuBP41-42" edge="1">
          <mxGeometry relative="1" as="geometry" />
        </mxCell>
        <mxCell id="zAIG83uWjQyKsGUuBP41-45" style="edgeStyle=orthogonalEdgeStyle;rounded=0;orthogonalLoop=1;jettySize=auto;html=1;exitX=0.5;exitY=1;exitDx=0;exitDy=0;" parent="1" source="zAIG83uWjQyKsGUuBP41-30" target="zAIG83uWjQyKsGUuBP41-43" edge="1">
          <mxGeometry relative="1" as="geometry" />
        </mxCell>
        <mxCell id="zAIG83uWjQyKsGUuBP41-30" value="Feature 1" style="rounded=0;whiteSpace=wrap;html=1;" parent="1" vertex="1">
          <mxGeometry x="2490" y="992" width="120" height="60" as="geometry" />
        </mxCell>
        <mxCell id="zAIG83uWjQyKsGUuBP41-32" value="Feature 2" style="rounded=0;whiteSpace=wrap;html=1;" parent="1" vertex="1">
          <mxGeometry x="2650" y="992" width="120" height="60" as="geometry" />
        </mxCell>
        <mxCell id="zAIG83uWjQyKsGUuBP41-34" value="Feature" style="swimlane;" parent="1" vertex="1">
          <mxGeometry x="3055" y="760" width="430" height="200" as="geometry" />
        </mxCell>
        <mxCell id="zAIG83uWjQyKsGUuBP41-35" value="Requirement 1" style="rounded=0;whiteSpace=wrap;html=1;" parent="zAIG83uWjQyKsGUuBP41-34" vertex="1">
          <mxGeometry x="40" y="80" width="120" height="60" as="geometry" />
        </mxCell>
        <mxCell id="zAIG83uWjQyKsGUuBP41-36" value="Requirement 2" style="rounded=0;whiteSpace=wrap;html=1;" parent="zAIG83uWjQyKsGUuBP41-34" vertex="1">
          <mxGeometry x="245" y="80" width="120" height="60" as="geometry" />
        </mxCell>
        <mxCell id="zAIG83uWjQyKsGUuBP41-38" style="edgeStyle=orthogonalEdgeStyle;rounded=0;orthogonalLoop=1;jettySize=auto;html=1;exitX=0.5;exitY=1;exitDx=0;exitDy=0;entryX=0.5;entryY=0;entryDx=0;entryDy=0;" parent="1" source="zAIG83uWjQyKsGUuBP41-37" target="zAIG83uWjQyKsGUuBP41-35" edge="1">
          <mxGeometry relative="1" as="geometry" />
        </mxCell>
        <mxCell id="zAIG83uWjQyKsGUuBP41-39" style="edgeStyle=orthogonalEdgeStyle;rounded=0;orthogonalLoop=1;jettySize=auto;html=1;exitX=0.5;exitY=1;exitDx=0;exitDy=0;" parent="1" source="zAIG83uWjQyKsGUuBP41-37" target="zAIG83uWjQyKsGUuBP41-36" edge="1">
          <mxGeometry relative="1" as="geometry" />
        </mxCell>
        <mxCell id="zAIG83uWjQyKsGUuBP41-37" value="Requirement 1" style="rounded=0;whiteSpace=wrap;html=1;" parent="1" vertex="1">
          <mxGeometry x="3210" y="585" width="120" height="60" as="geometry" />
        </mxCell>
        <mxCell id="zAIG83uWjQyKsGUuBP41-40" value="" style="endArrow=none;dashed=1;html=1;dashPattern=1 3;strokeWidth=2;rounded=0;" parent="1" edge="1">
          <mxGeometry width="50" height="50" relative="1" as="geometry">
            <mxPoint x="2520" y="740" as="sourcePoint" />
            <mxPoint x="2960" y="740" as="targetPoint" />
          </mxGeometry>
        </mxCell>
        <mxCell id="zAIG83uWjQyKsGUuBP41-41" value="" style="endArrow=none;dashed=1;html=1;dashPattern=1 3;strokeWidth=2;rounded=0;" parent="1" edge="1">
          <mxGeometry width="50" height="50" relative="1" as="geometry">
            <mxPoint x="2450" y="950" as="sourcePoint" />
            <mxPoint x="3000" y="950" as="targetPoint" />
          </mxGeometry>
        </mxCell>
        <mxCell id="zAIG83uWjQyKsGUuBP41-42" value="Requirement 1" style="rounded=0;whiteSpace=wrap;html=1;" parent="1" vertex="1">
          <mxGeometry x="2387.5" y="1100" width="120" height="60" as="geometry" />
        </mxCell>
        <mxCell id="zAIG83uWjQyKsGUuBP41-43" value="Requirement 2" style="rounded=0;whiteSpace=wrap;html=1;" parent="1" vertex="1">
          <mxGeometry x="2592.5" y="1100" width="120" height="60" as="geometry" />
        </mxCell>
        <mxCell id="79Z9Q-6hPmKRdCCNC6Sg-38" value="" style="endArrow=none;dashed=1;html=1;dashPattern=1 3;strokeWidth=2;rounded=0;" parent="1" edge="1">
          <mxGeometry width="50" height="50" relative="1" as="geometry">
            <mxPoint x="1020" y="990" as="sourcePoint" />
            <mxPoint x="2160" y="990" as="targetPoint" />
          </mxGeometry>
        </mxCell>
        <mxCell id="79Z9Q-6hPmKRdCCNC6Sg-54" value="Figures" style="" parent="0" />
        <mxCell id="79Z9Q-6hPmKRdCCNC6Sg-9" value="" style="edgeStyle=orthogonalEdgeStyle;rounded=0;orthogonalLoop=1;jettySize=auto;html=1;" parent="79Z9Q-6hPmKRdCCNC6Sg-54" source="79Z9Q-6hPmKRdCCNC6Sg-8" target="79Z9Q-6hPmKRdCCNC6Sg-7" edge="1">
          <mxGeometry relative="1" as="geometry" />
        </mxCell>
        <mxCell id="79Z9Q-6hPmKRdCCNC6Sg-18" style="edgeStyle=orthogonalEdgeStyle;rounded=0;orthogonalLoop=1;jettySize=auto;html=1;exitX=0.5;exitY=0;exitDx=0;exitDy=0;entryX=0;entryY=0.5;entryDx=0;entryDy=0;" parent="79Z9Q-6hPmKRdCCNC6Sg-54" source="79Z9Q-6hPmKRdCCNC6Sg-17" target="79Z9Q-6hPmKRdCCNC6Sg-8" edge="1">
          <mxGeometry relative="1" as="geometry" />
        </mxCell>
        <mxCell id="79Z9Q-6hPmKRdCCNC6Sg-8" value="L1 reqs&lt;br&gt;&lt;br&gt;(A tool)" style="rounded=0;whiteSpace=wrap;html=1;" parent="79Z9Q-6hPmKRdCCNC6Sg-54" vertex="1">
          <mxGeometry x="1600" y="700" width="80" height="60" as="geometry" />
        </mxCell>
        <mxCell id="79Z9Q-6hPmKRdCCNC6Sg-15" style="edgeStyle=orthogonalEdgeStyle;rounded=0;orthogonalLoop=1;jettySize=auto;html=1;exitX=0.5;exitY=0;exitDx=0;exitDy=0;entryX=0.5;entryY=1;entryDx=0;entryDy=0;" parent="79Z9Q-6hPmKRdCCNC6Sg-54" source="79Z9Q-6hPmKRdCCNC6Sg-12" target="79Z9Q-6hPmKRdCCNC6Sg-8" edge="1">
          <mxGeometry relative="1" as="geometry" />
        </mxCell>
        <mxCell id="79Z9Q-6hPmKRdCCNC6Sg-16" style="edgeStyle=orthogonalEdgeStyle;rounded=0;orthogonalLoop=1;jettySize=auto;html=1;exitX=0.75;exitY=0;exitDx=0;exitDy=0;entryX=0.5;entryY=1;entryDx=0;entryDy=0;" parent="79Z9Q-6hPmKRdCCNC6Sg-54" source="79Z9Q-6hPmKRdCCNC6Sg-12" target="79Z9Q-6hPmKRdCCNC6Sg-10" edge="1">
          <mxGeometry relative="1" as="geometry" />
        </mxCell>
        <mxCell id="79Z9Q-6hPmKRdCCNC6Sg-22" style="edgeStyle=orthogonalEdgeStyle;rounded=0;orthogonalLoop=1;jettySize=auto;html=1;exitX=0;exitY=0.5;exitDx=0;exitDy=0;entryX=0.5;entryY=1;entryDx=0;entryDy=0;" parent="79Z9Q-6hPmKRdCCNC6Sg-54" source="79Z9Q-6hPmKRdCCNC6Sg-12" target="79Z9Q-6hPmKRdCCNC6Sg-20" edge="1">
          <mxGeometry relative="1" as="geometry" />
        </mxCell>
        <mxCell id="79Z9Q-6hPmKRdCCNC6Sg-36" style="edgeStyle=orthogonalEdgeStyle;rounded=0;orthogonalLoop=1;jettySize=auto;html=1;exitX=0.75;exitY=0;exitDx=0;exitDy=0;entryX=0.5;entryY=1;entryDx=0;entryDy=0;" parent="79Z9Q-6hPmKRdCCNC6Sg-54" source="79Z9Q-6hPmKRdCCNC6Sg-12" target="79Z9Q-6hPmKRdCCNC6Sg-11" edge="1">
          <mxGeometry relative="1" as="geometry" />
        </mxCell>
        <mxCell id="79Z9Q-6hPmKRdCCNC6Sg-12" value="L2 reqs&lt;br&gt;&lt;div&gt;&lt;br&gt;&lt;/div&gt;&lt;div&gt;StrictDoc&lt;/div&gt;&lt;div&gt;(THE tool)&lt;/div&gt;" style="rounded=0;whiteSpace=wrap;html=1;" parent="79Z9Q-6hPmKRdCCNC6Sg-54" vertex="1">
          <mxGeometry x="1600" y="830" width="80" height="60" as="geometry" />
        </mxCell>
        <mxCell id="79Z9Q-6hPmKRdCCNC6Sg-14" style="edgeStyle=orthogonalEdgeStyle;rounded=0;orthogonalLoop=1;jettySize=auto;html=1;exitX=0.5;exitY=0;exitDx=0;exitDy=0;entryX=0.5;entryY=1;entryDx=0;entryDy=0;" parent="79Z9Q-6hPmKRdCCNC6Sg-54" source="79Z9Q-6hPmKRdCCNC6Sg-13" target="79Z9Q-6hPmKRdCCNC6Sg-12" edge="1">
          <mxGeometry relative="1" as="geometry" />
        </mxCell>
        <mxCell id="79Z9Q-6hPmKRdCCNC6Sg-24" style="edgeStyle=orthogonalEdgeStyle;rounded=0;orthogonalLoop=1;jettySize=auto;html=1;exitX=0.5;exitY=0;exitDx=0;exitDy=0;entryX=0.5;entryY=1;entryDx=0;entryDy=0;" parent="79Z9Q-6hPmKRdCCNC6Sg-54" source="79Z9Q-6hPmKRdCCNC6Sg-13" target="79Z9Q-6hPmKRdCCNC6Sg-23" edge="1">
          <mxGeometry relative="1" as="geometry">
            <Array as="points">
              <mxPoint x="1640" y="1010" />
              <mxPoint x="1520" y="1010" />
            </Array>
          </mxGeometry>
        </mxCell>
        <mxCell id="79Z9Q-6hPmKRdCCNC6Sg-40" style="edgeStyle=orthogonalEdgeStyle;rounded=0;orthogonalLoop=1;jettySize=auto;html=1;exitX=0.25;exitY=0;exitDx=0;exitDy=0;entryX=0.75;entryY=1;entryDx=0;entryDy=0;" parent="79Z9Q-6hPmKRdCCNC6Sg-54" source="79Z9Q-6hPmKRdCCNC6Sg-13" target="79Z9Q-6hPmKRdCCNC6Sg-27" edge="1">
          <mxGeometry relative="1" as="geometry">
            <Array as="points">
              <mxPoint x="1620" y="1020" />
              <mxPoint x="1420" y="1020" />
            </Array>
          </mxGeometry>
        </mxCell>
        <mxCell id="79Z9Q-6hPmKRdCCNC6Sg-13" value="Code" style="rounded=0;whiteSpace=wrap;html=1;" parent="79Z9Q-6hPmKRdCCNC6Sg-54" vertex="1">
          <mxGeometry x="1600" y="1040" width="80" height="60" as="geometry" />
        </mxCell>
        <mxCell id="79Z9Q-6hPmKRdCCNC6Sg-19" style="edgeStyle=orthogonalEdgeStyle;rounded=0;orthogonalLoop=1;jettySize=auto;html=1;exitX=0;exitY=0.5;exitDx=0;exitDy=0;entryX=0.5;entryY=1;entryDx=0;entryDy=0;" parent="79Z9Q-6hPmKRdCCNC6Sg-54" source="79Z9Q-6hPmKRdCCNC6Sg-12" target="79Z9Q-6hPmKRdCCNC6Sg-17" edge="1">
          <mxGeometry relative="1" as="geometry" />
        </mxCell>
        <mxCell id="79Z9Q-6hPmKRdCCNC6Sg-17" value="Feature" style="rounded=0;whiteSpace=wrap;html=1;" parent="79Z9Q-6hPmKRdCCNC6Sg-54" vertex="1">
          <mxGeometry x="1480" y="770" width="80" height="60" as="geometry" />
        </mxCell>
        <mxCell id="79Z9Q-6hPmKRdCCNC6Sg-21" style="edgeStyle=orthogonalEdgeStyle;rounded=0;orthogonalLoop=1;jettySize=auto;html=1;exitX=0.5;exitY=0;exitDx=0;exitDy=0;entryX=0;entryY=0.5;entryDx=0;entryDy=0;" parent="79Z9Q-6hPmKRdCCNC6Sg-54" source="79Z9Q-6hPmKRdCCNC6Sg-20" target="79Z9Q-6hPmKRdCCNC6Sg-8" edge="1">
          <mxGeometry relative="1" as="geometry" />
        </mxCell>
        <mxCell id="79Z9Q-6hPmKRdCCNC6Sg-20" value="Development plan" style="rounded=0;whiteSpace=wrap;html=1;" parent="79Z9Q-6hPmKRdCCNC6Sg-54" vertex="1">
          <mxGeometry x="1360" y="770" width="80" height="60" as="geometry" />
        </mxCell>
        <mxCell id="79Z9Q-6hPmKRdCCNC6Sg-26" style="edgeStyle=orthogonalEdgeStyle;rounded=0;orthogonalLoop=1;jettySize=auto;html=1;exitX=0.5;exitY=0;exitDx=0;exitDy=0;entryX=0;entryY=0.75;entryDx=0;entryDy=0;" parent="79Z9Q-6hPmKRdCCNC6Sg-54" source="79Z9Q-6hPmKRdCCNC6Sg-23" target="79Z9Q-6hPmKRdCCNC6Sg-12" edge="1">
          <mxGeometry relative="1" as="geometry" />
        </mxCell>
        <mxCell id="79Z9Q-6hPmKRdCCNC6Sg-23" value="Design" style="rounded=0;whiteSpace=wrap;html=1;" parent="79Z9Q-6hPmKRdCCNC6Sg-54" vertex="1">
          <mxGeometry x="1480" y="910" width="80" height="60" as="geometry" />
        </mxCell>
        <mxCell id="79Z9Q-6hPmKRdCCNC6Sg-28" style="edgeStyle=orthogonalEdgeStyle;rounded=0;orthogonalLoop=1;jettySize=auto;html=1;exitX=0.5;exitY=0;exitDx=0;exitDy=0;entryX=0;entryY=0.75;entryDx=0;entryDy=0;" parent="79Z9Q-6hPmKRdCCNC6Sg-54" source="79Z9Q-6hPmKRdCCNC6Sg-27" target="79Z9Q-6hPmKRdCCNC6Sg-12" edge="1">
          <mxGeometry relative="1" as="geometry" />
        </mxCell>
        <mxCell id="79Z9Q-6hPmKRdCCNC6Sg-30" style="edgeStyle=orthogonalEdgeStyle;rounded=0;orthogonalLoop=1;jettySize=auto;html=1;exitX=0.5;exitY=0;exitDx=0;exitDy=0;entryX=0.5;entryY=1;entryDx=0;entryDy=0;" parent="79Z9Q-6hPmKRdCCNC6Sg-54" source="79Z9Q-6hPmKRdCCNC6Sg-29" target="79Z9Q-6hPmKRdCCNC6Sg-27" edge="1">
          <mxGeometry relative="1" as="geometry" />
        </mxCell>
        <mxCell id="79Z9Q-6hPmKRdCCNC6Sg-27" value="Development guide" style="rounded=0;whiteSpace=wrap;html=1;" parent="79Z9Q-6hPmKRdCCNC6Sg-54" vertex="1">
          <mxGeometry x="1360" y="910" width="80" height="60" as="geometry" />
        </mxCell>
        <mxCell id="79Z9Q-6hPmKRdCCNC6Sg-64" style="edgeStyle=orthogonalEdgeStyle;rounded=0;orthogonalLoop=1;jettySize=auto;html=1;exitX=0.75;exitY=0;exitDx=0;exitDy=0;entryX=0.25;entryY=1;entryDx=0;entryDy=0;" parent="79Z9Q-6hPmKRdCCNC6Sg-54" source="79Z9Q-6hPmKRdCCNC6Sg-29" target="79Z9Q-6hPmKRdCCNC6Sg-12" edge="1">
          <mxGeometry relative="1" as="geometry">
            <Array as="points">
              <mxPoint x="1420" y="1030" />
              <mxPoint x="1620" y="1030" />
            </Array>
          </mxGeometry>
        </mxCell>
        <mxCell id="79Z9Q-6hPmKRdCCNC6Sg-29" value="Development scripts, configs, libraries" style="rounded=0;whiteSpace=wrap;html=1;" parent="79Z9Q-6hPmKRdCCNC6Sg-54" vertex="1">
          <mxGeometry x="1360" y="1040" width="80" height="60" as="geometry" />
        </mxCell>
        <mxCell id="79Z9Q-6hPmKRdCCNC6Sg-34" style="edgeStyle=orthogonalEdgeStyle;rounded=0;orthogonalLoop=1;jettySize=auto;html=1;exitX=0;exitY=0.5;exitDx=0;exitDy=0;entryX=1;entryY=0.5;entryDx=0;entryDy=0;" parent="79Z9Q-6hPmKRdCCNC6Sg-54" source="79Z9Q-6hPmKRdCCNC6Sg-31" target="79Z9Q-6hPmKRdCCNC6Sg-13" edge="1">
          <mxGeometry relative="1" as="geometry" />
        </mxCell>
        <mxCell id="79Z9Q-6hPmKRdCCNC6Sg-35" style="edgeStyle=orthogonalEdgeStyle;rounded=0;orthogonalLoop=1;jettySize=auto;html=1;exitX=0.5;exitY=0;exitDx=0;exitDy=0;entryX=0.75;entryY=1;entryDx=0;entryDy=0;" parent="79Z9Q-6hPmKRdCCNC6Sg-54" source="79Z9Q-6hPmKRdCCNC6Sg-31" target="79Z9Q-6hPmKRdCCNC6Sg-12" edge="1">
          <mxGeometry relative="1" as="geometry">
            <Array as="points">
              <mxPoint x="1760" y="1010" />
              <mxPoint x="1660" y="1010" />
            </Array>
          </mxGeometry>
        </mxCell>
        <mxCell id="79Z9Q-6hPmKRdCCNC6Sg-31" value="Test" style="rounded=0;whiteSpace=wrap;html=1;" parent="79Z9Q-6hPmKRdCCNC6Sg-54" vertex="1">
          <mxGeometry x="1720" y="1040" width="80" height="60" as="geometry" />
        </mxCell>
        <mxCell id="79Z9Q-6hPmKRdCCNC6Sg-33" style="edgeStyle=orthogonalEdgeStyle;rounded=0;orthogonalLoop=1;jettySize=auto;html=1;exitX=0.5;exitY=0;exitDx=0;exitDy=0;entryX=0.5;entryY=1;entryDx=0;entryDy=0;" parent="79Z9Q-6hPmKRdCCNC6Sg-54" source="79Z9Q-6hPmKRdCCNC6Sg-32" target="79Z9Q-6hPmKRdCCNC6Sg-31" edge="1">
          <mxGeometry relative="1" as="geometry" />
        </mxCell>
        <mxCell id="79Z9Q-6hPmKRdCCNC6Sg-32" value="Test result" style="rounded=0;whiteSpace=wrap;html=1;" parent="79Z9Q-6hPmKRdCCNC6Sg-54" vertex="1">
          <mxGeometry x="1720" y="1140" width="80" height="60" as="geometry" />
        </mxCell>
        <mxCell id="79Z9Q-6hPmKRdCCNC6Sg-7" value="Zephyr RTOS" style="rounded=0;whiteSpace=wrap;html=1;" parent="79Z9Q-6hPmKRdCCNC6Sg-54" vertex="1">
          <mxGeometry x="1760" y="700" width="80" height="60" as="geometry" />
        </mxCell>
        <mxCell id="79Z9Q-6hPmKRdCCNC6Sg-10" value="DO-178C (aviation)" style="rounded=0;whiteSpace=wrap;html=1;" parent="79Z9Q-6hPmKRdCCNC6Sg-54" vertex="1">
          <mxGeometry x="1850" y="700" width="80" height="60" as="geometry" />
        </mxCell>
        <mxCell id="79Z9Q-6hPmKRdCCNC6Sg-11" value="ISO 13485&lt;div&gt;(medical)&lt;/div&gt;" style="rounded=0;whiteSpace=wrap;html=1;" parent="79Z9Q-6hPmKRdCCNC6Sg-54" vertex="1">
          <mxGeometry x="1940" y="700" width="80" height="60" as="geometry" />
        </mxCell>
        <mxCell id="LldZmWKW7AhyZr-JKAm6-2" style="edgeStyle=orthogonalEdgeStyle;rounded=0;orthogonalLoop=1;jettySize=auto;html=1;exitX=0.5;exitY=0;exitDx=0;exitDy=0;entryX=0.5;entryY=1;entryDx=0;entryDy=0;" parent="79Z9Q-6hPmKRdCCNC6Sg-54" source="LldZmWKW7AhyZr-JKAm6-1" target="79Z9Q-6hPmKRdCCNC6Sg-13" edge="1">
          <mxGeometry relative="1" as="geometry" />
        </mxCell>
        <mxCell id="LldZmWKW7AhyZr-JKAm6-1" value="Code coverage" style="rounded=0;whiteSpace=wrap;html=1;" parent="79Z9Q-6hPmKRdCCNC6Sg-54" vertex="1">
          <mxGeometry x="1600" y="1140" width="80" height="60" as="geometry" />
        </mxCell>
        <mxCell id="LldZmWKW7AhyZr-JKAm6-3" value="&lt;div&gt;Project statistics&lt;/div&gt;&lt;div&gt;&lt;br&gt;&lt;/div&gt;&lt;div&gt;(counts all links)&lt;/div&gt;" style="rounded=0;whiteSpace=wrap;html=1;" parent="79Z9Q-6hPmKRdCCNC6Sg-54" vertex="1">
          <mxGeometry x="1930" y="1040" width="90" height="60" as="geometry" />
        </mxCell>
      </root>
    </mxGraphModel>
  </diagram>
  <diagram id="odpjYmKa3UCVNtoiXPh0" name="Requirements verification">
    <mxGraphModel grid="0" page="0" gridSize="10" guides="1" tooltips="1" connect="1" arrows="1" fold="1" pageScale="1" pageWidth="827" pageHeight="1169" math="0" shadow="0">
      <root>
        <mxCell id="0" />
        <mxCell id="1" parent="0" />
        <mxCell id="-urwvw4bnxuLsxlCPvHD-1" style="rounded=0;orthogonalLoop=1;jettySize=auto;html=1;exitX=0.25;exitY=1;exitDx=0;exitDy=0;entryX=0.75;entryY=0;entryDx=0;entryDy=0;" edge="1" parent="1" source="-urwvw4bnxuLsxlCPvHD-14" target="-urwvw4bnxuLsxlCPvHD-9">
          <mxGeometry relative="1" as="geometry" />
        </mxCell>
        <mxCell id="-urwvw4bnxuLsxlCPvHD-7" value="Source code" style="swimlane;align=right;swimlaneLine=1;fillColor=none;" vertex="1" parent="1">
          <mxGeometry x="80" y="750" width="730" height="200" as="geometry" />
        </mxCell>
        <mxCell id="-urwvw4bnxuLsxlCPvHD-9" value="Test" style="rounded=0;whiteSpace=wrap;html=1;" vertex="1" parent="-urwvw4bnxuLsxlCPvHD-7">
          <mxGeometry x="277" y="60" width="120" height="80" as="geometry" />
        </mxCell>
        <mxCell id="-urwvw4bnxuLsxlCPvHD-10" value="Test report,&lt;div&gt;&lt;span style=&quot;background-color: transparent; color: light-dark(rgb(0, 0, 0), rgb(255, 255, 255));&quot;&gt;e.g., JUnit XML&lt;/span&gt;&lt;/div&gt;" style="rounded=0;whiteSpace=wrap;html=1;" vertex="1" parent="-urwvw4bnxuLsxlCPvHD-7">
          <mxGeometry x="460" y="60" width="120" height="80" as="geometry" />
        </mxCell>
        <mxCell id="-urwvw4bnxuLsxlCPvHD-11" style="edgeStyle=orthogonalEdgeStyle;rounded=0;orthogonalLoop=1;jettySize=auto;html=1;exitX=1;exitY=0.5;exitDx=0;exitDy=0;" edge="1" parent="-urwvw4bnxuLsxlCPvHD-7" source="-urwvw4bnxuLsxlCPvHD-9" target="-urwvw4bnxuLsxlCPvHD-10">
          <mxGeometry relative="1" as="geometry" />
        </mxCell>
        <mxCell id="L76AtfdDQlGwQsHUeOsy-3" value="Implementation" style="rounded=0;whiteSpace=wrap;html=1;" vertex="1" parent="-urwvw4bnxuLsxlCPvHD-7">
          <mxGeometry x="150" y="60" width="120" height="80" as="geometry" />
        </mxCell>
        <mxCell id="-urwvw4bnxuLsxlCPvHD-12" value="SDoc" style="swimlane;align=right;" vertex="1" parent="1">
          <mxGeometry x="80" y="490" width="730" height="200" as="geometry" />
        </mxCell>
        <mxCell id="-urwvw4bnxuLsxlCPvHD-13" value="Requirement" style="rounded=0;whiteSpace=wrap;html=1;" vertex="1" parent="-urwvw4bnxuLsxlCPvHD-12">
          <mxGeometry x="-25" y="46" width="120" height="80" as="geometry" />
        </mxCell>
        <mxCell id="-urwvw4bnxuLsxlCPvHD-14" value="Test result&lt;div&gt;&lt;br&gt;&lt;/div&gt;&lt;div&gt;(generated on the fly from JUnit XML)&lt;/div&gt;" style="rounded=0;whiteSpace=wrap;html=1;" vertex="1" parent="-urwvw4bnxuLsxlCPvHD-12">
          <mxGeometry x="460" y="50" width="120" height="80" as="geometry" />
        </mxCell>
        <mxCell id="-urwvw4bnxuLsxlCPvHD-15" style="edgeStyle=orthogonalEdgeStyle;rounded=0;orthogonalLoop=1;jettySize=auto;html=1;exitX=0;exitY=0.5;exitDx=0;exitDy=0;entryX=1;entryY=0.5;entryDx=0;entryDy=0;" edge="1" parent="-urwvw4bnxuLsxlCPvHD-12" source="-urwvw4bnxuLsxlCPvHD-14" target="-urwvw4bnxuLsxlCPvHD-13">
          <mxGeometry relative="1" as="geometry">
            <mxPoint x="280" y="90" as="sourcePoint" />
          </mxGeometry>
        </mxCell>
        <mxCell id="L76AtfdDQlGwQsHUeOsy-1" value="Test" style="rounded=0;whiteSpace=wrap;html=1;" vertex="1" parent="-urwvw4bnxuLsxlCPvHD-12">
          <mxGeometry x="277" y="54" width="120" height="80" as="geometry" />
        </mxCell>
        <mxCell id="L76AtfdDQlGwQsHUeOsy-4" style="edgeStyle=orthogonalEdgeStyle;rounded=0;orthogonalLoop=1;jettySize=auto;html=1;exitX=0.5;exitY=0;exitDx=0;exitDy=0;entryX=1;entryY=0.5;entryDx=0;entryDy=0;" edge="1" parent="-urwvw4bnxuLsxlCPvHD-12" source="-urwvw4bnxuLsxlCPvHD-8" target="-urwvw4bnxuLsxlCPvHD-13">
          <mxGeometry relative="1" as="geometry" />
        </mxCell>
        <mxCell id="-urwvw4bnxuLsxlCPvHD-8" value="Implementation" style="rounded=0;whiteSpace=wrap;html=1;" vertex="1" parent="-urwvw4bnxuLsxlCPvHD-12">
          <mxGeometry x="150" y="118" width="120" height="80" as="geometry" />
        </mxCell>
        <mxCell id="-urwvw4bnxuLsxlCPvHD-16" style="edgeStyle=orthogonalEdgeStyle;rounded=0;orthogonalLoop=1;jettySize=auto;html=1;exitX=0.5;exitY=1;exitDx=0;exitDy=0;entryX=0.5;entryY=0;entryDx=0;entryDy=0;" edge="1" parent="1" source="-urwvw4bnxuLsxlCPvHD-14" target="-urwvw4bnxuLsxlCPvHD-10">
          <mxGeometry relative="1" as="geometry" />
        </mxCell>
        <mxCell id="L76AtfdDQlGwQsHUeOsy-2" value="" style="edgeStyle=orthogonalEdgeStyle;rounded=0;orthogonalLoop=1;jettySize=auto;html=1;exitX=0.5;exitY=0;exitDx=0;exitDy=0;entryX=0.5;entryY=1;entryDx=0;entryDy=0;" edge="1" parent="1" source="-urwvw4bnxuLsxlCPvHD-9" target="L76AtfdDQlGwQsHUeOsy-1">
          <mxGeometry relative="1" as="geometry">
            <mxPoint x="414" y="810" as="sourcePoint" />
            <mxPoint x="230" y="589" as="targetPoint" />
          </mxGeometry>
        </mxCell>
        <mxCell id="L76AtfdDQlGwQsHUeOsy-5" style="edgeStyle=orthogonalEdgeStyle;rounded=0;orthogonalLoop=1;jettySize=auto;html=1;exitX=0.5;exitY=1;exitDx=0;exitDy=0;" edge="1" parent="1" source="-urwvw4bnxuLsxlCPvHD-8" target="L76AtfdDQlGwQsHUeOsy-3">
          <mxGeometry relative="1" as="geometry" />
        </mxCell>
      </root>
    </mxGraphModel>
  </diagram>
  <diagram name="Systems vs Software" id="yT1sfEM8uXp_71TTeawq">
    <mxGraphModel grid="1" page="1" gridSize="10" guides="1" tooltips="1" connect="1" arrows="1" fold="1" pageScale="1" pageWidth="827" pageHeight="1169" math="0" shadow="0">
      <root>
        <mxCell id="99rDl3f7qPsBwf8MF5n6-0" />
        <mxCell id="99rDl3f7qPsBwf8MF5n6-1" parent="99rDl3f7qPsBwf8MF5n6-0" />
        <mxCell id="99rDl3f7qPsBwf8MF5n6-33" value="World of Systems" style="swimlane;container=0;" vertex="1" parent="99rDl3f7qPsBwf8MF5n6-1">
          <mxGeometry x="-760" y="479" width="160" height="221" as="geometry" />
        </mxCell>
        <mxCell id="99rDl3f7qPsBwf8MF5n6-34" value="&lt;div&gt;Documents&lt;/div&gt;" style="rounded=0;whiteSpace=wrap;html=1;" vertex="1" parent="99rDl3f7qPsBwf8MF5n6-33">
          <mxGeometry x="20" y="40" width="120" height="40" as="geometry" />
        </mxCell>
        <mxCell id="99rDl3f7qPsBwf8MF5n6-35" value="&lt;div&gt;Requirements&lt;/div&gt;" style="rounded=0;whiteSpace=wrap;html=1;" vertex="1" parent="99rDl3f7qPsBwf8MF5n6-33">
          <mxGeometry x="20" y="101" width="120" height="40" as="geometry" />
        </mxCell>
        <mxCell id="99rDl3f7qPsBwf8MF5n6-36" value="&lt;div&gt;Models&lt;/div&gt;" style="rounded=0;whiteSpace=wrap;html=1;" vertex="1" parent="99rDl3f7qPsBwf8MF5n6-33">
          <mxGeometry x="20" y="161" width="120" height="40" as="geometry" />
        </mxCell>
        <mxCell id="99rDl3f7qPsBwf8MF5n6-37" value="World of Software" style="swimlane;startSize=23;container=0;" vertex="1" parent="99rDl3f7qPsBwf8MF5n6-1">
          <mxGeometry x="-440" y="479" width="300" height="221" as="geometry" />
        </mxCell>
        <mxCell id="99rDl3f7qPsBwf8MF5n6-38" value="Code coverage reports" style="rounded=0;whiteSpace=wrap;html=1;" vertex="1" parent="99rDl3f7qPsBwf8MF5n6-37">
          <mxGeometry x="160" y="161" width="120" height="40" as="geometry" />
        </mxCell>
        <mxCell id="99rDl3f7qPsBwf8MF5n6-39" value="&lt;div&gt;Source code&amp;nbsp;&lt;/div&gt;&lt;div&gt;and tests&lt;/div&gt;" style="rounded=0;whiteSpace=wrap;html=1;" vertex="1" parent="99rDl3f7qPsBwf8MF5n6-37">
          <mxGeometry x="20" y="40" width="120" height="40" as="geometry" />
        </mxCell>
        <mxCell id="99rDl3f7qPsBwf8MF5n6-41" value="&lt;div&gt;Test reports&lt;/div&gt;" style="rounded=0;whiteSpace=wrap;html=1;" vertex="1" parent="99rDl3f7qPsBwf8MF5n6-37">
          <mxGeometry x="160" y="100" width="120" height="40" as="geometry" />
        </mxCell>
        <mxCell id="99rDl3f7qPsBwf8MF5n6-42" style="rounded=0;orthogonalLoop=1;jettySize=auto;html=1;exitX=1;exitY=0.5;exitDx=0;exitDy=0;entryX=0;entryY=0.5;entryDx=0;entryDy=0;endArrow=none;startFill=0;" edge="1" parent="99rDl3f7qPsBwf8MF5n6-37">
          <mxGeometry relative="1" as="geometry">
            <mxPoint x="211" y="157" as="sourcePoint" />
          </mxGeometry>
        </mxCell>
        <mxCell id="99rDl3f7qPsBwf8MF5n6-43" value="Auto-generated code" style="rounded=0;whiteSpace=wrap;html=1;" vertex="1" parent="99rDl3f7qPsBwf8MF5n6-37">
          <mxGeometry x="20" y="101" width="120" height="40" as="geometry" />
        </mxCell>
        <mxCell id="99rDl3f7qPsBwf8MF5n6-44" value="Doxygen" style="rounded=0;whiteSpace=wrap;html=1;" vertex="1" parent="99rDl3f7qPsBwf8MF5n6-37">
          <mxGeometry x="160" y="40" width="120" height="40" as="geometry" />
        </mxCell>
        <mxCell id="99rDl3f7qPsBwf8MF5n6-40" value="Documents" style="rounded=0;whiteSpace=wrap;html=1;" vertex="1" parent="99rDl3f7qPsBwf8MF5n6-37">
          <mxGeometry x="20" y="161" width="120" height="40" as="geometry" />
        </mxCell>
        <mxCell id="99rDl3f7qPsBwf8MF5n6-45" value="" style="shape=doubleArrow;direction=south;whiteSpace=wrap;html=1;arrowWidth=0.31465520336468283;arrowSize=0.3921568627450995;rotation=90;" vertex="1" parent="99rDl3f7qPsBwf8MF5n6-1">
          <mxGeometry x="-539.56" y="526.81" width="40" height="116.35" as="geometry" />
        </mxCell>
        <mxCell id="wFWGvBZJNk32mfG0I2VF-0" value="World of Systems" style="swimlane;swimlaneHead=1;swimlaneBody=1;horizontal=1;container=0;" vertex="1" parent="99rDl3f7qPsBwf8MF5n6-1">
          <mxGeometry x="-760" y="759" width="160" height="221" as="geometry" />
        </mxCell>
        <mxCell id="wFWGvBZJNk32mfG0I2VF-1" value="&lt;div&gt;Documents&lt;/div&gt;" style="rounded=0;whiteSpace=wrap;html=1;" vertex="1" parent="wFWGvBZJNk32mfG0I2VF-0">
          <mxGeometry x="20" y="40" width="120" height="40" as="geometry" />
        </mxCell>
        <mxCell id="wFWGvBZJNk32mfG0I2VF-2" value="&lt;div&gt;Requirements&lt;/div&gt;" style="rounded=0;whiteSpace=wrap;html=1;" vertex="1" parent="wFWGvBZJNk32mfG0I2VF-0">
          <mxGeometry x="20" y="101" width="120" height="40" as="geometry" />
        </mxCell>
        <mxCell id="wFWGvBZJNk32mfG0I2VF-3" value="&lt;div&gt;Models&lt;/div&gt;" style="rounded=0;whiteSpace=wrap;html=1;" vertex="1" parent="wFWGvBZJNk32mfG0I2VF-0">
          <mxGeometry x="20" y="161" width="120" height="40" as="geometry" />
        </mxCell>
        <mxCell id="wFWGvBZJNk32mfG0I2VF-4" value="World of Software" style="swimlane;startSize=23;container=0;" vertex="1" parent="99rDl3f7qPsBwf8MF5n6-1">
          <mxGeometry x="-440" y="759" width="300" height="221" as="geometry" />
        </mxCell>
        <mxCell id="wFWGvBZJNk32mfG0I2VF-5" value="&lt;div&gt;Code coverage reports&lt;/div&gt;&lt;div&gt;&lt;span style=&quot;color: rgb(0, 0, 255);&quot;&gt;.gcov.json&lt;/span&gt;&lt;/div&gt;" style="rounded=0;whiteSpace=wrap;html=1;" vertex="1" parent="wFWGvBZJNk32mfG0I2VF-4">
          <mxGeometry x="160" y="161" width="120" height="40" as="geometry" />
        </mxCell>
        <mxCell id="wFWGvBZJNk32mfG0I2VF-6" value="&lt;div&gt;Documents&lt;/div&gt;&lt;div&gt;&lt;span style=&quot;color: rgb(0, 0, 255);&quot;&gt;.md, .rst, .adoc&lt;/span&gt;&lt;/div&gt;" style="rounded=0;whiteSpace=wrap;html=1;" vertex="1" parent="wFWGvBZJNk32mfG0I2VF-4">
          <mxGeometry x="20" y="160" width="120" height="40" as="geometry" />
        </mxCell>
        <mxCell id="wFWGvBZJNk32mfG0I2VF-7" value="&lt;div&gt;Source code&amp;nbsp;&lt;/div&gt;&lt;div&gt;and tests&lt;/div&gt;&lt;div&gt;&lt;span style=&quot;color: rgb(0, 0, 255);&quot;&gt;.c, .h. py&lt;/span&gt;&lt;/div&gt;" style="rounded=0;whiteSpace=wrap;html=1;" vertex="1" parent="wFWGvBZJNk32mfG0I2VF-4">
          <mxGeometry x="20" y="40" width="120" height="40" as="geometry" />
        </mxCell>
        <mxCell id="wFWGvBZJNk32mfG0I2VF-8" value="&lt;div&gt;Test reports&lt;/div&gt;&lt;div&gt;&lt;span style=&quot;color: rgb(0, 0, 255);&quot;&gt;.junit.xml&lt;/span&gt;&lt;/div&gt;" style="rounded=0;whiteSpace=wrap;html=1;" vertex="1" parent="wFWGvBZJNk32mfG0I2VF-4">
          <mxGeometry x="160" y="100" width="120" height="40" as="geometry" />
        </mxCell>
        <mxCell id="wFWGvBZJNk32mfG0I2VF-9" style="rounded=0;orthogonalLoop=1;jettySize=auto;html=1;exitX=1;exitY=0.5;exitDx=0;exitDy=0;entryX=0;entryY=0.5;entryDx=0;entryDy=0;endArrow=none;startFill=0;" edge="1" parent="wFWGvBZJNk32mfG0I2VF-4">
          <mxGeometry relative="1" as="geometry">
            <mxPoint x="211" y="157" as="sourcePoint" />
          </mxGeometry>
        </mxCell>
        <mxCell id="wFWGvBZJNk32mfG0I2VF-10" value="&lt;div&gt;Auto-generated code&lt;/div&gt;&lt;div&gt;&lt;span style=&quot;color: rgb(0, 0, 255);&quot;&gt;.c, .h. py, .xml&lt;/span&gt;&lt;/div&gt;" style="rounded=0;whiteSpace=wrap;html=1;" vertex="1" parent="wFWGvBZJNk32mfG0I2VF-4">
          <mxGeometry x="20" y="101" width="120" height="40" as="geometry" />
        </mxCell>
        <mxCell id="wFWGvBZJNk32mfG0I2VF-11" value="&lt;div&gt;Doxygen&lt;/div&gt;&lt;span style=&quot;color: rgb(0, 0, 255);&quot;&gt;HTML, XML&lt;/span&gt;" style="rounded=0;whiteSpace=wrap;html=1;" vertex="1" parent="wFWGvBZJNk32mfG0I2VF-4">
          <mxGeometry x="160" y="40" width="120" height="40" as="geometry" />
        </mxCell>
        <mxCell id="wFWGvBZJNk32mfG0I2VF-12" value="" style="shape=doubleArrow;direction=south;whiteSpace=wrap;html=1;arrowWidth=0.31465520336468283;arrowSize=0.3921568627450995;rotation=90;" vertex="1" parent="99rDl3f7qPsBwf8MF5n6-1">
          <mxGeometry x="-539.56" y="806.81" width="40" height="116.35" as="geometry" />
        </mxCell>
        <mxCell id="wFWGvBZJNk32mfG0I2VF-13" value="&lt;div&gt;(Informal), Word, Excel&lt;/div&gt;" style="text;html=1;align=center;verticalAlign=middle;whiteSpace=wrap;rounded=0;fontSize=14;fontColor=#0000FF;" vertex="1" parent="99rDl3f7qPsBwf8MF5n6-1">
          <mxGeometry x="-609.06" y="790" width="180" height="40" as="geometry" />
        </mxCell>
        <mxCell id="wFWGvBZJNk32mfG0I2VF-14" value="&lt;div&gt;JSON/XML, REST API&lt;/div&gt;&lt;div&gt;ReqIF, SPDX&lt;/div&gt;" style="text;html=1;align=center;verticalAlign=middle;whiteSpace=wrap;rounded=0;fontSize=14;fontColor=#0000FF;" vertex="1" parent="99rDl3f7qPsBwf8MF5n6-1">
          <mxGeometry x="-600" y="910" width="160" height="40" as="geometry" />
        </mxCell>
      </root>
    </mxGraphModel>
  </diagram>
  <diagram id="44qwrU6La3E9WKoW_g80" name="File Traceability Index">
    <mxGraphModel grid="0" page="0" gridSize="10" guides="1" tooltips="1" connect="1" arrows="1" fold="1" pageScale="1" pageWidth="827" pageHeight="1169" math="0" shadow="0">
      <root>
        <mxCell id="0" />
        <mxCell id="1" parent="0" />
        <mxCell id="kVda6_v4AAA_5ya8-KJ_-1" value="FileTraceabilityIndex" style="swimlane;" vertex="1" parent="1">
          <mxGeometry x="40" y="160" width="1384" height="1010" as="geometry" />
        </mxCell>
        <mxCell id="kVda6_v4AAA_5ya8-KJ_-2" value="create_requirement()" style="rounded=0;whiteSpace=wrap;html=1;" vertex="1" parent="kVda6_v4AAA_5ya8-KJ_-1">
          <mxGeometry x="40" y="80" width="160" height="60" as="geometry" />
        </mxCell>
        <mxCell id="kVda6_v4AAA_5ya8-KJ_-3" value="create_traceability_index()" style="rounded=0;whiteSpace=wrap;html=1;" vertex="1" parent="kVda6_v4AAA_5ya8-KJ_-1">
          <mxGeometry x="240" y="80" width="160" height="60" as="geometry" />
        </mxCell>
        <mxCell id="kVda6_v4AAA_5ya8-KJ_-4" value="validate_and_resolve()" style="rounded=0;whiteSpace=wrap;html=1;" vertex="1" parent="kVda6_v4AAA_5ya8-KJ_-1">
          <mxGeometry x="440" y="80" width="160" height="60" as="geometry" />
        </mxCell>
        <mxCell id="kVda6_v4AAA_5ya8-KJ_-5" value="&quot;src/file.py&quot; -&amp;gt; [SDocNode, ...]" style="rounded=0;whiteSpace=wrap;html=1;align=left;" vertex="1" parent="kVda6_v4AAA_5ya8-KJ_-1">
          <mxGeometry x="40" y="320" width="240" height="60" as="geometry" />
        </mxCell>
        <mxCell id="kVda6_v4AAA_5ya8-KJ_-6" value="&quot;REQ-001&quot; -&amp;gt; set{&lt;div&gt;&amp;nbsp; &amp;nbsp;&quot;src/file.py&quot;, ...&lt;/div&gt;&lt;div&gt;}&lt;/div&gt;" style="rounded=0;whiteSpace=wrap;html=1;align=left;" vertex="1" parent="kVda6_v4AAA_5ya8-KJ_-1">
          <mxGeometry x="40" y="400" width="240" height="60" as="geometry" />
        </mxCell>
        <mxCell id="kVda6_v4AAA_5ya8-KJ_-7" value="&quot;src/file.py&quot; -&amp;gt; SourceFileTraceabilityInfo" style="rounded=0;whiteSpace=wrap;html=1;align=left;" vertex="1" parent="kVda6_v4AAA_5ya8-KJ_-1">
          <mxGeometry x="40" y="480" width="240" height="60" as="geometry" />
        </mxCell>
        <mxCell id="kVda6_v4AAA_5ya8-KJ_-8" value="&quot;REQ-001&quot; -&amp;gt; [&lt;div&gt;&amp;nbsp; &amp;nbsp; &amp;nbsp; &amp;nbsp; &amp;nbsp; &amp;nbsp; &amp;nbsp; (&quot;src/file.py&quot;: (3,5))&lt;br&gt;&lt;div&gt;]&amp;nbsp; &amp;nbsp; &amp;nbsp; &amp;nbsp; &amp;nbsp; &amp;nbsp; &amp;nbsp; &amp;nbsp; &amp;nbsp; &amp;nbsp; &amp;nbsp;&amp;nbsp;&lt;/div&gt;&lt;/div&gt;" style="rounded=0;whiteSpace=wrap;html=1;align=left;" vertex="1" parent="kVda6_v4AAA_5ya8-KJ_-1">
          <mxGeometry x="40" y="560" width="240" height="60" as="geometry" />
        </mxCell>
        <mxCell id="kVda6_v4AAA_5ya8-KJ_-9" value="&quot;src/file.py&quot; -&amp;gt; {&lt;div&gt;&amp;nbsp; &amp;nbsp; &quot;foo&quot;: [&amp;nbsp;&lt;span style=&quot;background-color: transparent; color: light-dark(rgb(0, 0, 0), rgb(255, 255, 255));&quot;&gt;&quot;REQ-001&quot;&lt;/span&gt;&lt;span style=&quot;background-color: transparent; color: light-dark(rgb(0, 0, 0), rgb(255, 255, 255));&quot;&gt;]&amp;nbsp; &amp;nbsp; &amp;nbsp; &amp;nbsp;&lt;/span&gt;&lt;/div&gt;&lt;div&gt;}&amp;nbsp; &amp;nbsp; &amp;nbsp; &amp;nbsp; &amp;nbsp; &amp;nbsp; &amp;nbsp; &amp;nbsp; &amp;nbsp; &amp;nbsp;&amp;nbsp;&lt;span style=&quot;background-color: transparent; color: light-dark(rgb(0, 0, 0), rgb(255, 255, 255));&quot;&gt;&amp;nbsp;&lt;/span&gt;&lt;/div&gt;" style="rounded=0;whiteSpace=wrap;html=1;align=left;" vertex="1" parent="kVda6_v4AAA_5ya8-KJ_-1">
          <mxGeometry x="40" y="640" width="240" height="60" as="geometry" />
        </mxCell>
        <mxCell id="kVda6_v4AAA_5ya8-KJ_-10" value="&quot;src/file.py&quot; -&amp;gt; {&lt;div&gt;&amp;nbsp; &amp;nbsp; &quot;FooClass&quot;: [&amp;nbsp;&lt;span style=&quot;background-color: transparent; color: light-dark(rgb(0, 0, 0), rgb(255, 255, 255));&quot;&gt;&quot;REQ-001&quot;&lt;/span&gt;&lt;span style=&quot;background-color: transparent; color: light-dark(rgb(0, 0, 0), rgb(255, 255, 255));&quot;&gt;]&lt;/span&gt;&lt;/div&gt;&lt;div&gt;}&amp;nbsp; &amp;nbsp; &amp;nbsp; &amp;nbsp; &amp;nbsp; &amp;nbsp; &amp;nbsp; &amp;nbsp; &amp;nbsp; &amp;nbsp;&amp;nbsp;&lt;span style=&quot;background-color: transparent; color: light-dark(rgb(0, 0, 0), rgb(255, 255, 255));&quot;&gt;&amp;nbsp;&lt;/span&gt;&lt;/div&gt;" style="rounded=0;whiteSpace=wrap;html=1;align=left;" vertex="1" parent="kVda6_v4AAA_5ya8-KJ_-1">
          <mxGeometry x="40" y="720" width="240" height="60" as="geometry" />
        </mxCell>
        <mxCell id="kVda6_v4AAA_5ya8-KJ_-11" value="&quot;func&quot; -&amp;gt; [&lt;div&gt;&amp;nbsp; &amp;nbsp; Function(...)&lt;/div&gt;&lt;div&gt;]&lt;span style=&quot;background-color: transparent; color: light-dark(rgb(0, 0, 0), rgb(255, 255, 255));&quot;&gt;&amp;nbsp; &amp;nbsp; &amp;nbsp; &amp;nbsp;&lt;/span&gt;&lt;span style=&quot;background-color: transparent; color: light-dark(rgb(0, 0, 0), rgb(255, 255, 255));&quot;&gt;&amp;nbsp;&lt;/span&gt;&lt;/div&gt;" style="rounded=0;whiteSpace=wrap;html=1;align=left;" vertex="1" parent="kVda6_v4AAA_5ya8-KJ_-1">
          <mxGeometry x="40" y="800" width="240" height="60" as="geometry" />
        </mxCell>
        <mxCell id="kVda6_v4AAA_5ya8-KJ_-12" value="&lt;div&gt;&quot;file.py&quot; -&amp;gt; (&lt;/div&gt;&lt;div&gt;&amp;nbsp; &amp;nbsp; &amp;nbsp;general_requirements:[SDocNode],&amp;nbsp;&lt;/div&gt;&lt;div&gt;&lt;span style=&quot;background-color: transparent; color: light-dark(rgb(0, 0, 0), rgb(255, 255, 255));&quot;&gt;&amp;nbsp; &amp;nbsp; &amp;nbsp;range_requirements: [SDocNode]&lt;/span&gt;&lt;/div&gt;&lt;div&gt;)&lt;/div&gt;" style="rounded=0;whiteSpace=wrap;html=1;align=left;" vertex="1" parent="kVda6_v4AAA_5ya8-KJ_-1">
          <mxGeometry x="40" y="880" width="240" height="80" as="geometry" />
        </mxCell>
        <mxCell id="kVda6_v4AAA_5ya8-KJ_-16" style="rounded=0;orthogonalLoop=1;jettySize=auto;html=1;exitX=0.5;exitY=1;exitDx=0;exitDy=0;entryX=0.5;entryY=1;entryDx=0;entryDy=0;" edge="1" parent="kVda6_v4AAA_5ya8-KJ_-1" source="kVda6_v4AAA_5ya8-KJ_-13" target="kVda6_v4AAA_5ya8-KJ_-14">
          <mxGeometry relative="1" as="geometry" />
        </mxCell>
        <mxCell id="kVda6_v4AAA_5ya8-KJ_-19" style="rounded=0;orthogonalLoop=1;jettySize=auto;html=1;exitX=0.5;exitY=1;exitDx=0;exitDy=0;" edge="1" parent="kVda6_v4AAA_5ya8-KJ_-1" source="kVda6_v4AAA_5ya8-KJ_-13" target="kVda6_v4AAA_5ya8-KJ_-18">
          <mxGeometry relative="1" as="geometry" />
        </mxCell>
        <mxCell id="kVda6_v4AAA_5ya8-KJ_-29" style="rounded=0;orthogonalLoop=1;jettySize=auto;html=1;exitX=0.5;exitY=1;exitDx=0;exitDy=0;entryX=0.5;entryY=0;entryDx=0;entryDy=0;" edge="1" parent="kVda6_v4AAA_5ya8-KJ_-1" source="kVda6_v4AAA_5ya8-KJ_-13" target="kVda6_v4AAA_5ya8-KJ_-24">
          <mxGeometry relative="1" as="geometry" />
        </mxCell>
        <mxCell id="kVda6_v4AAA_5ya8-KJ_-30" style="rounded=0;orthogonalLoop=1;jettySize=auto;html=1;exitX=0.5;exitY=1;exitDx=0;exitDy=0;entryX=0.5;entryY=0;entryDx=0;entryDy=0;" edge="1" parent="kVda6_v4AAA_5ya8-KJ_-1" source="kVda6_v4AAA_5ya8-KJ_-13" target="kVda6_v4AAA_5ya8-KJ_-20">
          <mxGeometry relative="1" as="geometry" />
        </mxCell>
        <mxCell id="kVda6_v4AAA_5ya8-KJ_-31" style="rounded=0;orthogonalLoop=1;jettySize=auto;html=1;exitX=0.5;exitY=1;exitDx=0;exitDy=0;entryX=0.5;entryY=0;entryDx=0;entryDy=0;" edge="1" parent="kVda6_v4AAA_5ya8-KJ_-1" source="kVda6_v4AAA_5ya8-KJ_-13" target="kVda6_v4AAA_5ya8-KJ_-27">
          <mxGeometry relative="1" as="geometry" />
        </mxCell>
        <mxCell id="kVda6_v4AAA_5ya8-KJ_-13" value="&quot;src/file.py&quot;" style="rounded=0;whiteSpace=wrap;html=1;align=left;rotation=-45;" vertex="1" parent="kVda6_v4AAA_5ya8-KJ_-1">
          <mxGeometry x="360" y="320" width="240" height="60" as="geometry" />
        </mxCell>
        <mxCell id="kVda6_v4AAA_5ya8-KJ_-14" value="SDocNode" style="rounded=0;whiteSpace=wrap;html=1;align=left;" vertex="1" parent="kVda6_v4AAA_5ya8-KJ_-1">
          <mxGeometry x="680" y="200" width="240" height="60" as="geometry" />
        </mxCell>
        <mxCell id="kVda6_v4AAA_5ya8-KJ_-17" style="rounded=0;orthogonalLoop=1;jettySize=auto;html=1;exitX=0.5;exitY=1;exitDx=0;exitDy=0;entryX=0.5;entryY=1;entryDx=0;entryDy=0;" edge="1" parent="kVda6_v4AAA_5ya8-KJ_-1" source="kVda6_v4AAA_5ya8-KJ_-15" target="kVda6_v4AAA_5ya8-KJ_-13">
          <mxGeometry relative="1" as="geometry" />
        </mxCell>
        <mxCell id="kVda6_v4AAA_5ya8-KJ_-21" style="rounded=0;orthogonalLoop=1;jettySize=auto;html=1;exitX=0.5;exitY=1;exitDx=0;exitDy=0;entryX=0.5;entryY=0;entryDx=0;entryDy=0;" edge="1" parent="kVda6_v4AAA_5ya8-KJ_-1" source="kVda6_v4AAA_5ya8-KJ_-15" target="kVda6_v4AAA_5ya8-KJ_-20">
          <mxGeometry relative="1" as="geometry" />
        </mxCell>
        <mxCell id="kVda6_v4AAA_5ya8-KJ_-23" style="rounded=0;orthogonalLoop=1;jettySize=auto;html=1;exitX=0.5;exitY=1;exitDx=0;exitDy=0;entryX=0.5;entryY=0;entryDx=0;entryDy=0;" edge="1" parent="kVda6_v4AAA_5ya8-KJ_-1" source="kVda6_v4AAA_5ya8-KJ_-13" target="kVda6_v4AAA_5ya8-KJ_-22">
          <mxGeometry relative="1" as="geometry" />
        </mxCell>
        <mxCell id="kVda6_v4AAA_5ya8-KJ_-15" value="REQ-001" style="rounded=0;whiteSpace=wrap;html=1;align=left;rotation=40;" vertex="1" parent="kVda6_v4AAA_5ya8-KJ_-1">
          <mxGeometry x="961" y="280" width="240" height="60" as="geometry" />
        </mxCell>
        <mxCell id="kVda6_v4AAA_5ya8-KJ_-18" value="SourceFileTraceabilityInfo" style="rounded=0;whiteSpace=wrap;html=1;align=left;rotation=60;" vertex="1" parent="kVda6_v4AAA_5ya8-KJ_-1">
          <mxGeometry x="280" y="610" width="240" height="60" as="geometry" />
        </mxCell>
        <mxCell id="kVda6_v4AAA_5ya8-KJ_-20" value="(&quot;src/file.py&quot;: (3,5))" style="rounded=0;whiteSpace=wrap;html=1;align=left;rotation=-60;" vertex="1" parent="kVda6_v4AAA_5ya8-KJ_-1">
          <mxGeometry x="1020" y="650" width="240" height="60" as="geometry" />
        </mxCell>
        <mxCell id="kVda6_v4AAA_5ya8-KJ_-22" value="RANGE(3,5)" style="rounded=0;whiteSpace=wrap;html=1;align=left;rotation=-15;" vertex="1" parent="kVda6_v4AAA_5ya8-KJ_-1">
          <mxGeometry x="950" y="830" width="240" height="60" as="geometry" />
        </mxCell>
        <mxCell id="kVda6_v4AAA_5ya8-KJ_-26" style="rounded=0;orthogonalLoop=1;jettySize=auto;html=1;exitX=0.5;exitY=0;exitDx=0;exitDy=0;entryX=0.5;entryY=1;entryDx=0;entryDy=0;" edge="1" parent="kVda6_v4AAA_5ya8-KJ_-1" source="kVda6_v4AAA_5ya8-KJ_-24" target="kVda6_v4AAA_5ya8-KJ_-15">
          <mxGeometry relative="1" as="geometry" />
        </mxCell>
        <mxCell id="kVda6_v4AAA_5ya8-KJ_-24" value="foo()" style="rounded=0;whiteSpace=wrap;html=1;align=left;rotation=25;" vertex="1" parent="kVda6_v4AAA_5ya8-KJ_-1">
          <mxGeometry x="410" y="830" width="240" height="60" as="geometry" />
        </mxCell>
        <mxCell id="kVda6_v4AAA_5ya8-KJ_-28" style="rounded=0;orthogonalLoop=1;jettySize=auto;html=1;exitX=0.5;exitY=0;exitDx=0;exitDy=0;entryX=0.5;entryY=1;entryDx=0;entryDy=0;" edge="1" parent="kVda6_v4AAA_5ya8-KJ_-1" source="kVda6_v4AAA_5ya8-KJ_-27" target="kVda6_v4AAA_5ya8-KJ_-15">
          <mxGeometry relative="1" as="geometry" />
        </mxCell>
        <mxCell id="kVda6_v4AAA_5ya8-KJ_-27" value="FooClass" style="rounded=0;whiteSpace=wrap;html=1;align=left;rotation=0;" vertex="1" parent="kVda6_v4AAA_5ya8-KJ_-1">
          <mxGeometry x="680" y="900" width="240" height="60" as="geometry" />
        </mxCell>
      </root>
    </mxGraphModel>
  </diagram>
  <diagram id="zKWpUJTkC_tUNhlubEvB" name="Traceability">
    <mxGraphModel grid="1" page="1" gridSize="10" guides="1" tooltips="1" connect="1" arrows="1" fold="1" pageScale="1" pageWidth="827" pageHeight="1169" math="0" shadow="0">
      <root>
        <mxCell id="0" />
        <mxCell id="1" parent="0" />
        <mxCell id="TmTSgZyQf55abg27w96t-1" value="Systems World" style="swimlane;" vertex="1" parent="1">
          <mxGeometry x="515" y="350" width="678" height="350" as="geometry" />
        </mxCell>
        <mxCell id="TmTSgZyQf55abg27w96t-2" value="&lt;div&gt;Confluence/Jira&lt;/div&gt;" style="rounded=0;whiteSpace=wrap;html=1;" vertex="1" parent="TmTSgZyQf55abg27w96t-1">
          <mxGeometry x="13" y="37" width="120" height="121" as="geometry" />
        </mxCell>
        <mxCell id="TmTSgZyQf55abg27w96t-3" value="&lt;div&gt;Polarion&lt;/div&gt;" style="rounded=0;whiteSpace=wrap;html=1;" vertex="1" parent="TmTSgZyQf55abg27w96t-1">
          <mxGeometry x="408" y="37" width="120" height="121" as="geometry" />
        </mxCell>
        <mxCell id="TmTSgZyQf55abg27w96t-4" value="&lt;div&gt;Enterprise Architect&lt;/div&gt;" style="rounded=0;whiteSpace=wrap;html=1;" vertex="1" parent="TmTSgZyQf55abg27w96t-1">
          <mxGeometry x="277" y="37" width="120" height="121" as="geometry" />
        </mxCell>
        <mxCell id="TmTSgZyQf55abg27w96t-5" value="&lt;div&gt;Capella&lt;/div&gt;" style="rounded=0;whiteSpace=wrap;html=1;" vertex="1" parent="TmTSgZyQf55abg27w96t-1">
          <mxGeometry x="539" y="37" width="120" height="121" as="geometry" />
        </mxCell>
        <mxCell id="TmTSgZyQf55abg27w96t-6" value="&lt;div&gt;Documents&lt;/div&gt;" style="rounded=0;whiteSpace=wrap;html=1;" vertex="1" parent="TmTSgZyQf55abg27w96t-1">
          <mxGeometry x="85" y="193" width="119" height="46" as="geometry" />
        </mxCell>
        <mxCell id="TmTSgZyQf55abg27w96t-7" value="&lt;div&gt;Models&lt;/div&gt;" style="rounded=0;whiteSpace=wrap;html=1;" vertex="1" parent="TmTSgZyQf55abg27w96t-1">
          <mxGeometry x="275" y="193" width="119" height="46" as="geometry" />
        </mxCell>
        <mxCell id="TmTSgZyQf55abg27w96t-8" value="&lt;div&gt;Requirements&lt;/div&gt;" style="rounded=0;whiteSpace=wrap;html=1;" vertex="1" parent="TmTSgZyQf55abg27w96t-1">
          <mxGeometry x="457" y="193" width="119" height="46" as="geometry" />
        </mxCell>
        <mxCell id="TmTSgZyQf55abg27w96t-9" value="&lt;div&gt;Doors&lt;/div&gt;" style="rounded=0;whiteSpace=wrap;html=1;" vertex="1" parent="TmTSgZyQf55abg27w96t-1">
          <mxGeometry x="145" y="37" width="120" height="121" as="geometry" />
        </mxCell>
        <mxCell id="TmTSgZyQf55abg27w96t-10" value="StrictDoc web UI&lt;div&gt;&lt;br&gt;&lt;/div&gt;&lt;div&gt;(edit documents and requirements)&lt;/div&gt;" style="rounded=0;whiteSpace=wrap;html=1;fillColor=#d5e8d4;strokeColor=#82b366;" vertex="1" parent="TmTSgZyQf55abg27w96t-1">
          <mxGeometry x="87" y="256" width="120" height="60" as="geometry" />
        </mxCell>
        <mxCell id="TmTSgZyQf55abg27w96t-11" value="Software World" style="swimlane;startSize=23;" vertex="1" parent="1">
          <mxGeometry x="510" y="848" width="678" height="376" as="geometry" />
        </mxCell>
        <mxCell id="TmTSgZyQf55abg27w96t-12" value="Test tools&lt;div&gt;&lt;br&gt;&lt;div&gt;(JUnit XML)&lt;/div&gt;&lt;/div&gt;" style="rounded=0;whiteSpace=wrap;html=1;" vertex="1" parent="TmTSgZyQf55abg27w96t-11">
          <mxGeometry x="533" y="220" width="120" height="60" as="geometry" />
        </mxCell>
        <mxCell id="TmTSgZyQf55abg27w96t-13" value="Sphinx" style="rounded=0;whiteSpace=wrap;html=1;" vertex="1" parent="TmTSgZyQf55abg27w96t-11">
          <mxGeometry x="269" y="220" width="120" height="60" as="geometry" />
        </mxCell>
        <mxCell id="TmTSgZyQf55abg27w96t-14" value="Doxygen" style="rounded=0;whiteSpace=wrap;html=1;" vertex="1" parent="TmTSgZyQf55abg27w96t-11">
          <mxGeometry x="401" y="220" width="120" height="60" as="geometry" />
        </mxCell>
        <mxCell id="TmTSgZyQf55abg27w96t-15" style="rounded=0;orthogonalLoop=1;jettySize=auto;html=1;exitX=0.5;exitY=1;exitDx=0;exitDy=0;entryX=0.5;entryY=0;entryDx=0;entryDy=0;endArrow=none;startFill=0;" edge="1" parent="TmTSgZyQf55abg27w96t-11" source="TmTSgZyQf55abg27w96t-16" target="TmTSgZyQf55abg27w96t-22">
          <mxGeometry relative="1" as="geometry" />
        </mxCell>
        <mxCell id="TmTSgZyQf55abg27w96t-16" value="&lt;div&gt;Documents&lt;/div&gt;" style="rounded=0;whiteSpace=wrap;html=1;" vertex="1" parent="TmTSgZyQf55abg27w96t-11">
          <mxGeometry x="92" y="49" width="119" height="46" as="geometry" />
        </mxCell>
        <mxCell id="TmTSgZyQf55abg27w96t-17" style="rounded=0;orthogonalLoop=1;jettySize=auto;html=1;exitX=0.5;exitY=1;exitDx=0;exitDy=0;entryX=0;entryY=0.5;entryDx=0;entryDy=0;endArrow=none;startFill=0;" edge="1" parent="TmTSgZyQf55abg27w96t-11" source="TmTSgZyQf55abg27w96t-18" target="TmTSgZyQf55abg27w96t-26">
          <mxGeometry relative="1" as="geometry" />
        </mxCell>
        <mxCell id="TmTSgZyQf55abg27w96t-18" value="&lt;div&gt;Source code&amp;nbsp;&lt;/div&gt;&lt;div&gt;and tests&lt;/div&gt;" style="rounded=0;whiteSpace=wrap;html=1;" vertex="1" parent="TmTSgZyQf55abg27w96t-11">
          <mxGeometry x="270" y="49" width="119" height="46" as="geometry" />
        </mxCell>
        <mxCell id="TmTSgZyQf55abg27w96t-19" value="&lt;div&gt;Test reports&lt;/div&gt;" style="rounded=0;whiteSpace=wrap;html=1;" vertex="1" parent="TmTSgZyQf55abg27w96t-11">
          <mxGeometry x="521" y="45" width="119" height="46" as="geometry" />
        </mxCell>
        <mxCell id="TmTSgZyQf55abg27w96t-20" value="Markdown" style="rounded=0;whiteSpace=wrap;html=1;" vertex="1" parent="TmTSgZyQf55abg27w96t-11">
          <mxGeometry x="269" y="294" width="120" height="60" as="geometry" />
        </mxCell>
        <mxCell id="TmTSgZyQf55abg27w96t-21" style="rounded=0;orthogonalLoop=1;jettySize=auto;html=1;exitX=1;exitY=0.5;exitDx=0;exitDy=0;entryX=0;entryY=0.5;entryDx=0;entryDy=0;endArrow=none;startFill=0;" edge="1" parent="TmTSgZyQf55abg27w96t-11" source="TmTSgZyQf55abg27w96t-22" target="TmTSgZyQf55abg27w96t-26">
          <mxGeometry relative="1" as="geometry" />
        </mxCell>
        <mxCell id="TmTSgZyQf55abg27w96t-22" value="SDoc documents&lt;div&gt;and requirements&lt;/div&gt;" style="rounded=0;whiteSpace=wrap;html=1;fillColor=#d5e8d4;strokeColor=#82b366;" vertex="1" parent="TmTSgZyQf55abg27w96t-11">
          <mxGeometry x="91" y="127" width="120" height="60" as="geometry" />
        </mxCell>
        <mxCell id="TmTSgZyQf55abg27w96t-23" style="rounded=0;orthogonalLoop=1;jettySize=auto;html=1;exitX=0.5;exitY=1;exitDx=0;exitDy=0;entryX=0.5;entryY=0;entryDx=0;entryDy=0;endArrow=none;startFill=0;" edge="1" parent="TmTSgZyQf55abg27w96t-11" source="TmTSgZyQf55abg27w96t-26" target="TmTSgZyQf55abg27w96t-12">
          <mxGeometry relative="1" as="geometry" />
        </mxCell>
        <mxCell id="TmTSgZyQf55abg27w96t-24" style="rounded=0;orthogonalLoop=1;jettySize=auto;html=1;exitX=0.5;exitY=0;exitDx=0;exitDy=0;entryX=0.5;entryY=1;entryDx=0;entryDy=0;endArrow=none;startFill=0;" edge="1" parent="TmTSgZyQf55abg27w96t-11" source="TmTSgZyQf55abg27w96t-26" target="TmTSgZyQf55abg27w96t-19">
          <mxGeometry relative="1" as="geometry" />
        </mxCell>
        <mxCell id="TmTSgZyQf55abg27w96t-25" style="rounded=0;orthogonalLoop=1;jettySize=auto;html=1;exitX=0.5;exitY=1;exitDx=0;exitDy=0;entryX=0.5;entryY=0;entryDx=0;entryDy=0;endArrow=none;startFill=0;" edge="1" parent="TmTSgZyQf55abg27w96t-11" source="TmTSgZyQf55abg27w96t-26" target="TmTSgZyQf55abg27w96t-14">
          <mxGeometry relative="1" as="geometry" />
        </mxCell>
        <mxCell id="TmTSgZyQf55abg27w96t-26" value="SDoc traceability" style="rounded=0;whiteSpace=wrap;html=1;fillColor=#d5e8d4;strokeColor=#82b366;" vertex="1" parent="TmTSgZyQf55abg27w96t-11">
          <mxGeometry x="401" y="125" width="120" height="60" as="geometry" />
        </mxCell>
        <mxCell id="TmTSgZyQf55abg27w96t-27" value="" style="shape=doubleArrow;direction=south;whiteSpace=wrap;html=1;" vertex="1" parent="1">
          <mxGeometry x="789" y="708" width="116" height="124" as="geometry" />
        </mxCell>
        <mxCell id="TmTSgZyQf55abg27w96t-28" value="Word&lt;div&gt;Excel&lt;/div&gt;" style="text;html=1;align=center;verticalAlign=middle;whiteSpace=wrap;rounded=0;" vertex="1" parent="1">
          <mxGeometry x="696" y="721" width="104" height="94" as="geometry" />
        </mxCell>
        <mxCell id="TmTSgZyQf55abg27w96t-29" value="&lt;div&gt;JSON&lt;/div&gt;&lt;div&gt;ReqIF&lt;/div&gt;&lt;div&gt;XML&lt;/div&gt;&lt;div&gt;SDoc&lt;/div&gt;" style="text;html=1;align=center;verticalAlign=middle;whiteSpace=wrap;rounded=0;" vertex="1" parent="1">
          <mxGeometry x="905" y="723" width="104" height="94" as="geometry" />
        </mxCell>
        <mxCell id="TmTSgZyQf55abg27w96t-30" value="SDoc&amp;lt;-&amp;gt;ReqIF&lt;div&gt;SDoc&amp;lt;-&amp;gt;JSON&lt;/div&gt;" style="rounded=0;whiteSpace=wrap;html=1;fillColor=#d5e8d4;strokeColor=#82b366;" vertex="1" parent="1">
          <mxGeometry x="1025" y="738" width="120" height="60" as="geometry" />
        </mxCell>
        <mxCell id="TmTSgZyQf55abg27w96t-31" style="edgeStyle=orthogonalEdgeStyle;rounded=0;orthogonalLoop=1;jettySize=auto;html=1;exitX=0.5;exitY=0;exitDx=0;exitDy=0;endArrow=none;startFill=0;" edge="1" parent="1" source="TmTSgZyQf55abg27w96t-16" target="TmTSgZyQf55abg27w96t-10">
          <mxGeometry relative="1" as="geometry" />
        </mxCell>
      </root>
    </mxGraphModel>
  </diagram>
  <diagram id="JGtl-fJF71fdHpy0RLXW" name="FREETEXT-TEXT">
    <mxGraphModel dx="706" dy="579" grid="1" gridSize="10" guides="1" tooltips="1" connect="1" arrows="1" fold="1" page="1" pageScale="1" pageWidth="850" pageHeight="1100" math="0" shadow="0">
      <root>
        <mxCell id="0" />
        <mxCell id="1" parent="0" />
        <mxCell id="fgCGNwH3KyF7AB6Kls5L-43" value="" style="rounded=0;whiteSpace=wrap;html=1;" parent="1" vertex="1">
          <mxGeometry x="580" y="30" width="420" height="320" as="geometry" />
        </mxCell>
        <mxCell id="fgCGNwH3KyF7AB6Kls5L-42" value="" style="rounded=0;whiteSpace=wrap;html=1;" parent="1" vertex="1">
          <mxGeometry y="30" width="420" height="320" as="geometry" />
        </mxCell>
        <mxCell id="fgCGNwH3KyF7AB6Kls5L-10" style="edgeStyle=orthogonalEdgeStyle;rounded=0;orthogonalLoop=1;jettySize=auto;html=1;exitX=0.5;exitY=1;exitDx=0;exitDy=0;" parent="1" source="fgCGNwH3KyF7AB6Kls5L-1" target="fgCGNwH3KyF7AB6Kls5L-5" edge="1">
          <mxGeometry relative="1" as="geometry" />
        </mxCell>
        <mxCell id="fgCGNwH3KyF7AB6Kls5L-11" style="rounded=0;orthogonalLoop=1;jettySize=auto;html=1;exitX=0.25;exitY=1;exitDx=0;exitDy=0;entryX=0.5;entryY=0;entryDx=0;entryDy=0;" parent="1" source="fgCGNwH3KyF7AB6Kls5L-1" target="fgCGNwH3KyF7AB6Kls5L-6" edge="1">
          <mxGeometry relative="1" as="geometry" />
        </mxCell>
        <mxCell id="fgCGNwH3KyF7AB6Kls5L-12" style="rounded=0;orthogonalLoop=1;jettySize=auto;html=1;exitX=0.75;exitY=1;exitDx=0;exitDy=0;entryX=0.5;entryY=0;entryDx=0;entryDy=0;" parent="1" source="fgCGNwH3KyF7AB6Kls5L-1" target="fgCGNwH3KyF7AB6Kls5L-2" edge="1">
          <mxGeometry relative="1" as="geometry" />
        </mxCell>
        <mxCell id="fgCGNwH3KyF7AB6Kls5L-1" value="SDoc graph" style="rounded=0;whiteSpace=wrap;html=1;" parent="1" vertex="1">
          <mxGeometry x="100" y="60" width="120" height="60" as="geometry" />
        </mxCell>
        <mxCell id="fgCGNwH3KyF7AB6Kls5L-8" style="rounded=0;orthogonalLoop=1;jettySize=auto;html=1;exitX=0.25;exitY=1;exitDx=0;exitDy=0;entryX=0.5;entryY=0;entryDx=0;entryDy=0;" parent="1" source="fgCGNwH3KyF7AB6Kls5L-2" target="fgCGNwH3KyF7AB6Kls5L-3" edge="1">
          <mxGeometry relative="1" as="geometry" />
        </mxCell>
        <mxCell id="fgCGNwH3KyF7AB6Kls5L-9" style="rounded=0;orthogonalLoop=1;jettySize=auto;html=1;exitX=0.75;exitY=1;exitDx=0;exitDy=0;entryX=0.5;entryY=0;entryDx=0;entryDy=0;" parent="1" source="fgCGNwH3KyF7AB6Kls5L-2" target="fgCGNwH3KyF7AB6Kls5L-4" edge="1">
          <mxGeometry relative="1" as="geometry" />
        </mxCell>
        <mxCell id="fgCGNwH3KyF7AB6Kls5L-2" value="Leaf nodes" style="rounded=0;whiteSpace=wrap;html=1;" parent="1" vertex="1">
          <mxGeometry x="220" y="160" width="80" height="60" as="geometry" />
        </mxCell>
        <mxCell id="fgCGNwH3KyF7AB6Kls5L-3" value="REQUIREMENT" style="rounded=0;whiteSpace=wrap;html=1;" parent="1" vertex="1">
          <mxGeometry x="130" y="260" width="110" height="60" as="geometry" />
        </mxCell>
        <mxCell id="fgCGNwH3KyF7AB6Kls5L-4" value="&lt;div&gt;CUSTOM_ELEMENT&lt;/div&gt;&lt;div&gt;&lt;br&gt;&lt;/div&gt;&lt;div&gt;(user-defined)&lt;/div&gt;" style="rounded=0;whiteSpace=wrap;html=1;" parent="1" vertex="1">
          <mxGeometry x="280" y="260" width="120" height="60" as="geometry" />
        </mxCell>
        <mxCell id="fgCGNwH3KyF7AB6Kls5L-5" value="FRETEXT" style="rounded=0;whiteSpace=wrap;html=1;fillColor=#f8cecc;strokeColor=#b85450;" parent="1" vertex="1">
          <mxGeometry x="120" y="160" width="80" height="60" as="geometry" />
        </mxCell>
        <mxCell id="fgCGNwH3KyF7AB6Kls5L-6" value="SECTION" style="rounded=0;whiteSpace=wrap;html=1;" parent="1" vertex="1">
          <mxGeometry x="20" y="160" width="80" height="60" as="geometry" />
        </mxCell>
        <mxCell id="fgCGNwH3KyF7AB6Kls5L-27" style="rounded=0;orthogonalLoop=1;jettySize=auto;html=1;exitX=0.25;exitY=1;exitDx=0;exitDy=0;entryX=0.5;entryY=0;entryDx=0;entryDy=0;" parent="1" source="fgCGNwH3KyF7AB6Kls5L-29" target="fgCGNwH3KyF7AB6Kls5L-36" edge="1">
          <mxGeometry relative="1" as="geometry" />
        </mxCell>
        <mxCell id="fgCGNwH3KyF7AB6Kls5L-28" style="rounded=0;orthogonalLoop=1;jettySize=auto;html=1;exitX=0.75;exitY=1;exitDx=0;exitDy=0;entryX=0.5;entryY=0;entryDx=0;entryDy=0;" parent="1" source="fgCGNwH3KyF7AB6Kls5L-29" target="fgCGNwH3KyF7AB6Kls5L-32" edge="1">
          <mxGeometry relative="1" as="geometry" />
        </mxCell>
        <mxCell id="fgCGNwH3KyF7AB6Kls5L-29" value="SDoc graph" style="rounded=0;whiteSpace=wrap;html=1;" parent="1" vertex="1">
          <mxGeometry x="650" y="60" width="120" height="60" as="geometry" />
        </mxCell>
        <mxCell id="fgCGNwH3KyF7AB6Kls5L-30" style="rounded=0;orthogonalLoop=1;jettySize=auto;html=1;exitX=0.5;exitY=1;exitDx=0;exitDy=0;entryX=0.5;entryY=0;entryDx=0;entryDy=0;" parent="1" source="fgCGNwH3KyF7AB6Kls5L-32" target="fgCGNwH3KyF7AB6Kls5L-33" edge="1">
          <mxGeometry relative="1" as="geometry" />
        </mxCell>
        <mxCell id="fgCGNwH3KyF7AB6Kls5L-31" style="rounded=0;orthogonalLoop=1;jettySize=auto;html=1;exitX=0.75;exitY=1;exitDx=0;exitDy=0;entryX=0.5;entryY=0;entryDx=0;entryDy=0;" parent="1" source="fgCGNwH3KyF7AB6Kls5L-32" target="fgCGNwH3KyF7AB6Kls5L-34" edge="1">
          <mxGeometry relative="1" as="geometry" />
        </mxCell>
        <mxCell id="fgCGNwH3KyF7AB6Kls5L-37" style="rounded=0;orthogonalLoop=1;jettySize=auto;html=1;exitX=0.25;exitY=1;exitDx=0;exitDy=0;entryX=0.5;entryY=0;entryDx=0;entryDy=0;" parent="1" source="fgCGNwH3KyF7AB6Kls5L-32" target="fgCGNwH3KyF7AB6Kls5L-35" edge="1">
          <mxGeometry relative="1" as="geometry" />
        </mxCell>
        <mxCell id="fgCGNwH3KyF7AB6Kls5L-32" value="Leaf nodes" style="rounded=0;whiteSpace=wrap;html=1;" parent="1" vertex="1">
          <mxGeometry x="750" y="160" width="80" height="60" as="geometry" />
        </mxCell>
        <mxCell id="fgCGNwH3KyF7AB6Kls5L-33" value="REQUIREMENT" style="rounded=0;whiteSpace=wrap;html=1;" parent="1" vertex="1">
          <mxGeometry x="740" y="260" width="100" height="60" as="geometry" />
        </mxCell>
        <mxCell id="fgCGNwH3KyF7AB6Kls5L-34" value="&lt;div&gt;CUSTOM_ELEMENT&lt;/div&gt;&lt;div&gt;&lt;br&gt;&lt;/div&gt;&lt;div&gt;(user-defined)&lt;/div&gt;" style="rounded=0;whiteSpace=wrap;html=1;" parent="1" vertex="1">
          <mxGeometry x="860" y="260" width="120" height="60" as="geometry" />
        </mxCell>
        <mxCell id="fgCGNwH3KyF7AB6Kls5L-35" value="TEXT" style="rounded=0;whiteSpace=wrap;html=1;fillColor=#d5e8d4;strokeColor=#82b366;" parent="1" vertex="1">
          <mxGeometry x="630" y="260" width="80" height="60" as="geometry" />
        </mxCell>
        <mxCell id="fgCGNwH3KyF7AB6Kls5L-36" value="SECTION" style="rounded=0;whiteSpace=wrap;html=1;" parent="1" vertex="1">
          <mxGeometry x="600" y="160" width="80" height="60" as="geometry" />
        </mxCell>
        <mxCell id="fgCGNwH3KyF7AB6Kls5L-40" value="" style="shape=flexArrow;endArrow=classic;html=1;rounded=0;fillColor=#f5f5f5;strokeColor=#666666;" parent="1" edge="1">
          <mxGeometry width="50" height="50" relative="1" as="geometry">
            <mxPoint x="440" y="190" as="sourcePoint" />
            <mxPoint x="560" y="190" as="targetPoint" />
          </mxGeometry>
        </mxCell>
        <mxCell id="fgCGNwH3KyF7AB6Kls5L-41" value="FREETEXT-&amp;gt;TEXT migration" style="text;html=1;align=center;verticalAlign=middle;whiteSpace=wrap;rounded=0;fontSize=14;" parent="1" vertex="1">
          <mxGeometry x="435" y="140" width="125" height="30" as="geometry" />
        </mxCell>
        <mxCell id="1ZoFSRD6Sw8M5rNFie7N-1" value="" style="rounded=0;whiteSpace=wrap;html=1;" parent="1" vertex="1">
          <mxGeometry x="400" y="380" width="420" height="320" as="geometry" />
        </mxCell>
        <mxCell id="1ZoFSRD6Sw8M5rNFie7N-2" style="rounded=0;orthogonalLoop=1;jettySize=auto;html=1;exitX=0.5;exitY=1;exitDx=0;exitDy=0;entryX=0.5;entryY=0;entryDx=0;entryDy=0;" parent="1" source="1ZoFSRD6Sw8M5rNFie7N-4" target="1ZoFSRD6Sw8M5rNFie7N-12" edge="1">
          <mxGeometry relative="1" as="geometry" />
        </mxCell>
        <mxCell id="1ZoFSRD6Sw8M5rNFie7N-3" style="rounded=0;orthogonalLoop=1;jettySize=auto;html=1;exitX=0.75;exitY=1;exitDx=0;exitDy=0;entryX=0.5;entryY=0;entryDx=0;entryDy=0;" parent="1" source="1ZoFSRD6Sw8M5rNFie7N-4" target="1ZoFSRD6Sw8M5rNFie7N-8" edge="1">
          <mxGeometry relative="1" as="geometry" />
        </mxCell>
        <mxCell id="1ZoFSRD6Sw8M5rNFie7N-4" value="SDoc graph" style="rounded=0;whiteSpace=wrap;html=1;" parent="1" vertex="1">
          <mxGeometry x="470" y="410" width="120" height="60" as="geometry" />
        </mxCell>
        <mxCell id="1ZoFSRD6Sw8M5rNFie7N-6" style="rounded=0;orthogonalLoop=1;jettySize=auto;html=1;exitX=0.75;exitY=1;exitDx=0;exitDy=0;entryX=0.5;entryY=0;entryDx=0;entryDy=0;" parent="1" source="1ZoFSRD6Sw8M5rNFie7N-8" target="1ZoFSRD6Sw8M5rNFie7N-10" edge="1">
          <mxGeometry relative="1" as="geometry" />
        </mxCell>
        <mxCell id="1ZoFSRD6Sw8M5rNFie7N-15" style="edgeStyle=orthogonalEdgeStyle;rounded=0;orthogonalLoop=1;jettySize=auto;html=1;exitX=0.5;exitY=1;exitDx=0;exitDy=0;" parent="1" source="1ZoFSRD6Sw8M5rNFie7N-8" target="1ZoFSRD6Sw8M5rNFie7N-11" edge="1">
          <mxGeometry relative="1" as="geometry" />
        </mxCell>
        <mxCell id="1ZoFSRD6Sw8M5rNFie7N-16" style="edgeStyle=orthogonalEdgeStyle;rounded=0;orthogonalLoop=1;jettySize=auto;html=1;exitX=0.5;exitY=1;exitDx=0;exitDy=0;" parent="1" source="1ZoFSRD6Sw8M5rNFie7N-8" target="1ZoFSRD6Sw8M5rNFie7N-9" edge="1">
          <mxGeometry relative="1" as="geometry" />
        </mxCell>
        <mxCell id="1ZoFSRD6Sw8M5rNFie7N-8" value="Leaf nodes" style="rounded=0;whiteSpace=wrap;html=1;" parent="1" vertex="1">
          <mxGeometry x="570" y="510" width="80" height="60" as="geometry" />
        </mxCell>
        <mxCell id="1ZoFSRD6Sw8M5rNFie7N-9" value="REQUIREMENT" style="rounded=0;whiteSpace=wrap;html=1;" parent="1" vertex="1">
          <mxGeometry x="645" y="610" width="100" height="60" as="geometry" />
        </mxCell>
        <mxCell id="1ZoFSRD6Sw8M5rNFie7N-10" value="&lt;div&gt;CUSTOM_ELEMENT&lt;/div&gt;&lt;div&gt;&lt;br&gt;&lt;/div&gt;&lt;div&gt;(user-defined)&lt;/div&gt;" style="rounded=0;whiteSpace=wrap;html=1;" parent="1" vertex="1">
          <mxGeometry x="765" y="610" width="120" height="60" as="geometry" />
        </mxCell>
        <mxCell id="1ZoFSRD6Sw8M5rNFie7N-11" value="TEXT" style="rounded=0;whiteSpace=wrap;html=1;fillColor=#d5e8d4;strokeColor=#82b366;" parent="1" vertex="1">
          <mxGeometry x="535" y="610" width="80" height="60" as="geometry" />
        </mxCell>
        <mxCell id="1ZoFSRD6Sw8M5rNFie7N-14" style="edgeStyle=orthogonalEdgeStyle;rounded=0;orthogonalLoop=1;jettySize=auto;html=1;exitX=0.5;exitY=1;exitDx=0;exitDy=0;" parent="1" source="1ZoFSRD6Sw8M5rNFie7N-12" target="1ZoFSRD6Sw8M5rNFie7N-13" edge="1">
          <mxGeometry relative="1" as="geometry" />
        </mxCell>
        <mxCell id="1ZoFSRD6Sw8M5rNFie7N-12" value="Composite [[NODE]]" style="rounded=0;whiteSpace=wrap;html=1;" parent="1" vertex="1">
          <mxGeometry x="425" y="510" width="80" height="60" as="geometry" />
        </mxCell>
        <mxCell id="1ZoFSRD6Sw8M5rNFie7N-13" value="[[SECTION]]" style="rounded=0;whiteSpace=wrap;html=1;" parent="1" vertex="1">
          <mxGeometry x="415" y="610" width="100" height="60" as="geometry" />
        </mxCell>
      </root>
    </mxGraphModel>
  </diagram>
  <diagram id="wziwDzq6cVXO5NykXqfj" name="Draft: Feature matrix v1">
    <mxGraphModel grid="1" page="1" gridSize="10" guides="1" tooltips="1" connect="1" arrows="1" fold="1" pageScale="1" pageWidth="827" pageHeight="1169" math="0" shadow="0">
      <root>
        <mxCell id="0" />
        <mxCell id="1" parent="0" />
        <mxCell id="A8z7ic3iZrR0ejGSzq16-1" value="HTML2PDF" style="rounded=0;whiteSpace=wrap;html=1;fontStyle=1;" vertex="1" parent="1">
          <mxGeometry x="400" y="120" width="80" height="80" as="geometry" />
        </mxCell>
        <mxCell id="A8z7ic3iZrR0ejGSzq16-2" value="Static HTML export" style="rounded=0;whiteSpace=wrap;html=1;fontStyle=1;" vertex="1" parent="1">
          <mxGeometry x="240" y="120" width="80" height="80" as="geometry" />
        </mxCell>
        <mxCell id="A8z7ic3iZrR0ejGSzq16-3" value="Web UI" style="rounded=0;whiteSpace=wrap;html=1;fontStyle=1;" vertex="1" parent="1">
          <mxGeometry x="480" y="120" width="80" height="80" as="geometry" />
        </mxCell>
        <mxCell id="A8z7ic3iZrR0ejGSzq16-5" value="&lt;div&gt;Static files&lt;/div&gt;&lt;div&gt;JS/CSS&lt;/div&gt;" style="rounded=0;whiteSpace=wrap;html=1;fontStyle=1" vertex="1" parent="1">
          <mxGeometry x="240" y="200" width="80" height="80" as="geometry" />
        </mxCell>
        <mxCell id="A8z7ic3iZrR0ejGSzq16-13" value="Export HTML standalone" style="rounded=0;whiteSpace=wrap;html=1;fontStyle=1" vertex="1" parent="1">
          <mxGeometry x="320" y="120" width="80" height="80" as="geometry" />
        </mxCell>
        <mxCell id="zt4Dq27zm765HgQNctOh-1" value="Analysis" style="swimlane;whiteSpace=wrap;html=1;" vertex="1" parent="1">
          <mxGeometry x="-280" y="80" width="199" height="430" as="geometry" />
        </mxCell>
        <mxCell id="zzkxE85gpIYOQEMseIhR-1" value="Search screen / search query engine" style="rounded=0;whiteSpace=wrap;html=1;fontStyle=1;" vertex="1" parent="zt4Dq27zm765HgQNctOh-1">
          <mxGeometry x="60" y="40" width="80" height="80" as="geometry" />
        </mxCell>
        <mxCell id="A8z7ic3iZrR0ejGSzq16-12" value="Diff/changelog" style="rounded=0;whiteSpace=wrap;html=1;fontStyle=1;" vertex="1" parent="zt4Dq27zm765HgQNctOh-1">
          <mxGeometry x="60" y="140" width="80" height="80" as="geometry" />
        </mxCell>
        <mxCell id="A8z7ic3iZrR0ejGSzq16-15" value="Project statistics" style="rounded=0;whiteSpace=wrap;html=1;fontStyle=1;" vertex="1" parent="zt4Dq27zm765HgQNctOh-1">
          <mxGeometry x="60" y="240" width="80" height="80" as="geometry" />
        </mxCell>
        <mxCell id="A8z7ic3iZrR0ejGSzq16-16" value="Traceability matrix" style="rounded=0;whiteSpace=wrap;html=1;fontStyle=1" vertex="1" parent="zt4Dq27zm765HgQNctOh-1">
          <mxGeometry x="60" y="340" width="80" height="80" as="geometry" />
        </mxCell>
        <mxCell id="zt4Dq27zm765HgQNctOh-4" value="Configuration" style="swimlane;whiteSpace=wrap;html=1;" vertex="1" parent="1">
          <mxGeometry y="80" width="160" height="240" as="geometry" />
        </mxCell>
        <mxCell id="A8z7ic3iZrR0ejGSzq16-9" value="Project options (TOML)" style="rounded=0;whiteSpace=wrap;html=1;fontStyle=1;" vertex="1" parent="zt4Dq27zm765HgQNctOh-4">
          <mxGeometry x="30" y="40" width="80" height="80" as="geometry" />
        </mxCell>
        <mxCell id="HosL7ZGhVDv-kahlzNTk-8" value="&lt;div&gt;CLI&lt;/div&gt;&lt;div&gt;&lt;br&gt;&lt;/div&gt;&lt;div&gt;ARGPARSE&lt;br&gt;&lt;/div&gt;" style="rounded=0;whiteSpace=wrap;html=1;fontStyle=1" vertex="1" parent="zt4Dq27zm765HgQNctOh-4">
          <mxGeometry x="30" y="140" width="80" height="80" as="geometry" />
        </mxCell>
        <mxCell id="HosL7ZGhVDv-kahlzNTk-1" value="MODEL" style="swimlane;whiteSpace=wrap;html=1;" vertex="1" parent="1">
          <mxGeometry x="-230" y="-530" width="900" height="590" as="geometry" />
        </mxCell>
        <mxCell id="A8z7ic3iZrR0ejGSzq16-4" value="Assets" style="rounded=0;whiteSpace=wrap;html=1;fontStyle=1" vertex="1" parent="HosL7ZGhVDv-kahlzNTk-1">
          <mxGeometry x="440" y="220" width="80" height="80" as="geometry" />
        </mxCell>
        <mxCell id="A8z7ic3iZrR0ejGSzq16-6" value="Manage Auto UID" style="rounded=0;whiteSpace=wrap;html=1;fontStyle=1" vertex="1" parent="HosL7ZGhVDv-kahlzNTk-1">
          <mxGeometry x="20" y="380" width="80" height="80" as="geometry" />
        </mxCell>
        <mxCell id="A8z7ic3iZrR0ejGSzq16-14" value="MathJAX" style="rounded=0;whiteSpace=wrap;html=1;fontStyle=1" vertex="1" parent="HosL7ZGhVDv-kahlzNTk-1">
          <mxGeometry x="690" y="330" width="80" height="80" as="geometry" />
        </mxCell>
        <mxCell id="A8z7ic3iZrR0ejGSzq16-18" value="Views" style="rounded=0;whiteSpace=wrap;html=1;fontStyle=1" vertex="1" parent="HosL7ZGhVDv-kahlzNTk-1">
          <mxGeometry x="454" y="320" width="80" height="80" as="geometry" />
        </mxCell>
        <mxCell id="A8z7ic3iZrR0ejGSzq16-19" value="Composable documents" style="rounded=0;whiteSpace=wrap;html=1;fontStyle=1;" vertex="1" parent="HosL7ZGhVDv-kahlzNTk-1">
          <mxGeometry x="480" y="70" width="80" height="80" as="geometry" />
        </mxCell>
        <mxCell id="A8z7ic3iZrR0ejGSzq16-21" value="SDoc model" style="rounded=0;whiteSpace=wrap;html=1;fontStyle=1" vertex="1" parent="HosL7ZGhVDv-kahlzNTk-1">
          <mxGeometry x="180" y="40" width="80" height="80" as="geometry" />
        </mxCell>
        <mxCell id="51eqb1L8WukHZ06BBLaY-2" value="UID" style="rounded=0;whiteSpace=wrap;html=1;fontStyle=1" vertex="1" parent="HosL7ZGhVDv-kahlzNTk-1">
          <mxGeometry x="120" y="140" width="80" height="80" as="geometry" />
        </mxCell>
        <mxCell id="51eqb1L8WukHZ06BBLaY-3" value="MID" style="rounded=0;whiteSpace=wrap;html=1;fontStyle=1" vertex="1" parent="HosL7ZGhVDv-kahlzNTk-1">
          <mxGeometry x="20" y="140" width="80" height="80" as="geometry" />
        </mxCell>
        <mxCell id="51eqb1L8WukHZ06BBLaY-6" value="Node" style="rounded=0;whiteSpace=wrap;html=1;fontStyle=1" vertex="1" parent="HosL7ZGhVDv-kahlzNTk-1">
          <mxGeometry x="270" y="140" width="80" height="80" as="geometry" />
        </mxCell>
        <mxCell id="51eqb1L8WukHZ06BBLaY-7" value="External links" style="rounded=0;whiteSpace=wrap;html=1;fontStyle=1" vertex="1" parent="HosL7ZGhVDv-kahlzNTk-1">
          <mxGeometry x="360" y="380" width="80" height="80" as="geometry" />
        </mxCell>
        <mxCell id="51eqb1L8WukHZ06BBLaY-8" value="Relations" style="rounded=0;whiteSpace=wrap;html=1;fontStyle=1" vertex="1" parent="HosL7ZGhVDv-kahlzNTk-1">
          <mxGeometry x="280" y="300" width="80" height="80" as="geometry" />
        </mxCell>
        <mxCell id="51eqb1L8WukHZ06BBLaY-9" value="Relation type" style="rounded=0;whiteSpace=wrap;html=1;fontStyle=1" vertex="1" parent="HosL7ZGhVDv-kahlzNTk-1">
          <mxGeometry x="200" y="380" width="80" height="80" as="geometry" />
        </mxCell>
        <mxCell id="51eqb1L8WukHZ06BBLaY-10" value="Relation role" style="rounded=0;whiteSpace=wrap;html=1;fontStyle=1" vertex="1" parent="HosL7ZGhVDv-kahlzNTk-1">
          <mxGeometry x="280" y="380" width="80" height="80" as="geometry" />
        </mxCell>
        <mxCell id="51eqb1L8WukHZ06BBLaY-11" value="Markup" style="rounded=0;whiteSpace=wrap;html=1;fontStyle=1" vertex="1" parent="HosL7ZGhVDv-kahlzNTk-1">
          <mxGeometry x="730" y="170" width="80" height="80" as="geometry" />
        </mxCell>
        <mxCell id="51eqb1L8WukHZ06BBLaY-12" value="RST" style="rounded=0;whiteSpace=wrap;html=1;fontStyle=1" vertex="1" parent="HosL7ZGhVDv-kahlzNTk-1">
          <mxGeometry x="690" y="250" width="80" height="80" as="geometry" />
        </mxCell>
        <mxCell id="51eqb1L8WukHZ06BBLaY-13" value="HTML" style="rounded=0;whiteSpace=wrap;html=1;fontStyle=1" vertex="1" parent="HosL7ZGhVDv-kahlzNTk-1">
          <mxGeometry x="770" y="250" width="80" height="80" as="geometry" />
        </mxCell>
        <mxCell id="0zodAb1PD4dV4l08EuQB-1" value="TEXT node" style="rounded=0;whiteSpace=wrap;html=1;fontStyle=1" vertex="1" parent="HosL7ZGhVDv-kahlzNTk-1">
          <mxGeometry x="130" y="270" width="80" height="80" as="geometry" />
        </mxCell>
        <mxCell id="0zodAb1PD4dV4l08EuQB-2" value="REQUIREMENT" style="rounded=0;whiteSpace=wrap;html=1;fontStyle=1" vertex="1" parent="HosL7ZGhVDv-kahlzNTk-1">
          <mxGeometry x="230" y="220" width="80" height="80" as="geometry" />
        </mxCell>
        <mxCell id="5Hzln_FQ13eof7Y7qiyd-16" value="Grammar" style="rounded=0;whiteSpace=wrap;html=1;fontStyle=1;" vertex="1" parent="HosL7ZGhVDv-kahlzNTk-1">
          <mxGeometry x="594" y="70" width="80" height="80" as="geometry" />
        </mxCell>
        <mxCell id="5Hzln_FQ13eof7Y7qiyd-17" value="Grammar from file" style="rounded=0;whiteSpace=wrap;html=1;fontStyle=1;" vertex="1" parent="HosL7ZGhVDv-kahlzNTk-1">
          <mxGeometry x="690" y="60" width="80" height="80" as="geometry" />
        </mxCell>
        <mxCell id="HosL7ZGhVDv-kahlzNTk-2" value="ReqIF" style="swimlane;whiteSpace=wrap;html=1;" vertex="1" parent="1">
          <mxGeometry x="780" y="-500" width="200" height="220" as="geometry" />
        </mxCell>
        <mxCell id="A8z7ic3iZrR0ejGSzq16-20" value="ReqIF" style="rounded=0;whiteSpace=wrap;html=1;fontStyle=1;" vertex="1" parent="HosL7ZGhVDv-kahlzNTk-2">
          <mxGeometry x="20" y="40" width="80" height="80" as="geometry" />
        </mxCell>
        <mxCell id="51eqb1L8WukHZ06BBLaY-5" value="Each ReqIF node has a MID" style="rounded=0;whiteSpace=wrap;html=1;fontStyle=1" vertex="1" parent="HosL7ZGhVDv-kahlzNTk-2">
          <mxGeometry x="20" y="140" width="80" height="80" as="geometry" />
        </mxCell>
        <mxCell id="51eqb1L8WukHZ06BBLaY-14" value="XHTML" style="rounded=0;whiteSpace=wrap;html=1;fontStyle=1" vertex="1" parent="HosL7ZGhVDv-kahlzNTk-2">
          <mxGeometry x="120" y="140" width="80" height="80" as="geometry" />
        </mxCell>
        <mxCell id="HosL7ZGhVDv-kahlzNTk-7" value="SPDX" style="swimlane;whiteSpace=wrap;html=1;" vertex="1" parent="1">
          <mxGeometry x="1080" y="-470" width="280" height="270" as="geometry" />
        </mxCell>
        <mxCell id="A8z7ic3iZrR0ejGSzq16-10" value="SPDX" style="rounded=0;whiteSpace=wrap;html=1;fontStyle=1" vertex="1" parent="HosL7ZGhVDv-kahlzNTk-7">
          <mxGeometry x="90" y="40" width="80" height="80" as="geometry" />
        </mxCell>
        <mxCell id="51eqb1L8WukHZ06BBLaY-15" value="SPDX ID" style="rounded=0;whiteSpace=wrap;html=1;fontStyle=1" vertex="1" parent="HosL7ZGhVDv-kahlzNTk-7">
          <mxGeometry x="30" y="160" width="80" height="80" as="geometry" />
        </mxCell>
        <mxCell id="51eqb1L8WukHZ06BBLaY-16" value="SPDX Document" style="rounded=0;whiteSpace=wrap;html=1;fontStyle=1" vertex="1" parent="HosL7ZGhVDv-kahlzNTk-7">
          <mxGeometry x="160.5" y="160" width="80" height="80" as="geometry" />
        </mxCell>
        <mxCell id="5YTKIy-ggg84VgFYnkAb-1" value="Source code" style="swimlane;whiteSpace=wrap;html=1;" vertex="1" parent="1">
          <mxGeometry x="1150" y="-130" width="300" height="290" as="geometry" />
        </mxCell>
        <mxCell id="A8z7ic3iZrR0ejGSzq16-7" value="Requirements to source traceability" style="rounded=0;whiteSpace=wrap;html=1;fontStyle=1;" vertex="1" parent="5YTKIy-ggg84VgFYnkAb-1">
          <mxGeometry x="20" y="40" width="80" height="80" as="geometry" />
        </mxCell>
        <mxCell id="A8z7ic3iZrR0ejGSzq16-17" value="Source coverage" style="rounded=0;whiteSpace=wrap;html=1;fontStyle=1" vertex="1" parent="5YTKIy-ggg84VgFYnkAb-1">
          <mxGeometry x="110" y="40" width="80" height="80" as="geometry" />
        </mxCell>
        <mxCell id="b6qaOuo8LyLXCWokCvng-1" value="Files" style="rounded=0;whiteSpace=wrap;html=1;fontStyle=1" vertex="1" parent="5YTKIy-ggg84VgFYnkAb-1">
          <mxGeometry x="200" y="40" width="80" height="80" as="geometry" />
        </mxCell>
        <mxCell id="b6qaOuo8LyLXCWokCvng-2" value="Function" style="rounded=0;whiteSpace=wrap;html=1;fontStyle=1" vertex="1" parent="5YTKIy-ggg84VgFYnkAb-1">
          <mxGeometry x="200" y="130" width="80" height="80" as="geometry" />
        </mxCell>
        <mxCell id="zt4Dq27zm765HgQNctOh-5" value="Source code markers" style="rounded=0;whiteSpace=wrap;html=1;fontStyle=1" vertex="1" parent="5YTKIy-ggg84VgFYnkAb-1">
          <mxGeometry x="20" y="200" width="80" height="80" as="geometry" />
        </mxCell>
        <mxCell id="5YTKIy-ggg84VgFYnkAb-5" value="JSON" style="swimlane;whiteSpace=wrap;html=1;" vertex="1" parent="1">
          <mxGeometry x="1400" y="-480" width="140" height="160" as="geometry" />
        </mxCell>
        <mxCell id="A8z7ic3iZrR0ejGSzq16-8" value="JSON export" style="rounded=0;whiteSpace=wrap;html=1;fontStyle=1" vertex="1" parent="5YTKIy-ggg84VgFYnkAb-5">
          <mxGeometry x="30" y="50" width="80" height="80" as="geometry" />
        </mxCell>
        <mxCell id="5YTKIy-ggg84VgFYnkAb-9" value="RST" style="swimlane;whiteSpace=wrap;html=1;" vertex="1" parent="1">
          <mxGeometry x="720" y="-100" width="270" height="310" as="geometry" />
        </mxCell>
        <mxCell id="A8z7ic3iZrR0ejGSzq16-11" value="RST export" style="rounded=0;whiteSpace=wrap;html=1;fontStyle=1;" vertex="1" parent="5YTKIy-ggg84VgFYnkAb-9">
          <mxGeometry x="160" y="50" width="80" height="80" as="geometry" />
        </mxCell>
        <mxCell id="5YTKIy-ggg84VgFYnkAb-11" value="RST-to-HTML" style="rounded=0;whiteSpace=wrap;html=1;fontStyle=1" vertex="1" parent="5YTKIy-ggg84VgFYnkAb-9">
          <mxGeometry x="27" y="50" width="80" height="80" as="geometry" />
        </mxCell>
        <mxCell id="5Hzln_FQ13eof7Y7qiyd-29" value="Test cases for directives and rules (custom handling by SDoc)" style="rounded=0;whiteSpace=wrap;html=1;fontStyle=1" vertex="1" parent="5YTKIy-ggg84VgFYnkAb-9">
          <mxGeometry x="27" y="130" width="80" height="80" as="geometry" />
        </mxCell>
        <mxCell id="5Hzln_FQ13eof7Y7qiyd-5" value="Stable node URL link" style="rounded=0;whiteSpace=wrap;html=1;fontStyle=1;" vertex="1" parent="1">
          <mxGeometry x="480" y="230" width="80" height="80" as="geometry" />
        </mxCell>
        <mxCell id="5Hzln_FQ13eof7Y7qiyd-6" value="Copy UID to clipboard" style="rounded=0;whiteSpace=wrap;html=1;fontStyle=1;" vertex="1" parent="1">
          <mxGeometry x="590" y="220" width="80" height="80" as="geometry" />
        </mxCell>
        <mxCell id="5Hzln_FQ13eof7Y7qiyd-9" value="Doxygen" style="rounded=0;whiteSpace=wrap;html=1;fontStyle=1;" vertex="1" parent="1">
          <mxGeometry x="1190" y="180" width="80" height="80" as="geometry" />
        </mxCell>
        <mxCell id="5Hzln_FQ13eof7Y7qiyd-10" value="Gcov" style="rounded=0;whiteSpace=wrap;html=1;fontStyle=1;" vertex="1" parent="1">
          <mxGeometry x="1280" y="180" width="80" height="80" as="geometry" />
        </mxCell>
        <mxCell id="5Hzln_FQ13eof7Y7qiyd-11" value="JUnit XML" style="rounded=0;whiteSpace=wrap;html=1;fontStyle=1;" vertex="1" parent="1">
          <mxGeometry x="1190" y="270" width="80" height="80" as="geometry" />
        </mxCell>
        <mxCell id="5Hzln_FQ13eof7Y7qiyd-18" value="HTML escaping" style="rounded=0;whiteSpace=wrap;html=1;fontStyle=1" vertex="1" parent="1">
          <mxGeometry x="580" y="380" width="80" height="80" as="geometry" />
        </mxCell>
        <mxCell id="5Hzln_FQ13eof7Y7qiyd-19" value="Document" style="swimlane;whiteSpace=wrap;html=1;" vertex="1" parent="1">
          <mxGeometry x="-560" y="-850" width="440" height="320" as="geometry" />
        </mxCell>
        <mxCell id="51eqb1L8WukHZ06BBLaY-4" value="Document" style="rounded=0;whiteSpace=wrap;html=1;fontStyle=1" vertex="1" parent="5Hzln_FQ13eof7Y7qiyd-19">
          <mxGeometry x="20" y="40" width="80" height="80" as="geometry" />
        </mxCell>
        <mxCell id="5Hzln_FQ13eof7Y7qiyd-23" value="Document meta" style="rounded=0;whiteSpace=wrap;html=1;fontStyle=1" vertex="1" parent="5Hzln_FQ13eof7Y7qiyd-19">
          <mxGeometry x="20" y="136" width="80" height="80" as="geometry" />
        </mxCell>
        <mxCell id="5Hzln_FQ13eof7Y7qiyd-39" value="Select markup" style="rounded=0;whiteSpace=wrap;html=1;fontStyle=1" vertex="1" parent="5Hzln_FQ13eof7Y7qiyd-19">
          <mxGeometry x="20" y="226" width="80" height="80" as="geometry" />
        </mxCell>
        <mxCell id="5Hzln_FQ13eof7Y7qiyd-24" value="Incremental generation" style="rounded=0;whiteSpace=wrap;html=1;fontStyle=1;" vertex="1" parent="1">
          <mxGeometry x="490" y="440" width="80" height="80" as="geometry" />
        </mxCell>
        <mxCell id="5Hzln_FQ13eof7Y7qiyd-25" value="Jinja" style="rounded=0;whiteSpace=wrap;html=1;fontStyle=1" vertex="1" parent="1">
          <mxGeometry x="480" y="340" width="80" height="80" as="geometry" />
        </mxCell>
        <mxCell id="5Hzln_FQ13eof7Y7qiyd-27" value="Parallelization" style="rounded=0;whiteSpace=wrap;html=1;fontStyle=1" vertex="1" parent="1">
          <mxGeometry x="600" y="490" width="80" height="80" as="geometry" />
        </mxCell>
        <mxCell id="5Hzln_FQ13eof7Y7qiyd-28" value="&lt;div&gt;Relative paths&lt;/div&gt;&lt;div&gt;handling&lt;/div&gt;" style="rounded=0;whiteSpace=wrap;html=1;fontStyle=1;" vertex="1" parent="1">
          <mxGeometry x="670" y="310" width="80" height="80" as="geometry" />
        </mxCell>
        <mxCell id="5Hzln_FQ13eof7Y7qiyd-30" value="MathJax" style="rounded=0;whiteSpace=wrap;html=1;fontStyle=1" vertex="1" parent="1">
          <mxGeometry x="370" y="310" width="80" height="80" as="geometry" />
        </mxCell>
        <mxCell id="5Hzln_FQ13eof7Y7qiyd-31" value="Section" style="swimlane;whiteSpace=wrap;html=1;" vertex="1" parent="1">
          <mxGeometry x="-580" y="-460" width="267" height="220" as="geometry" />
        </mxCell>
        <mxCell id="0zodAb1PD4dV4l08EuQB-3" value="Section" style="rounded=0;whiteSpace=wrap;html=1;fontStyle=1" vertex="1" parent="5Hzln_FQ13eof7Y7qiyd-31">
          <mxGeometry x="20" y="40" width="80" height="80" as="geometry" />
        </mxCell>
        <mxCell id="5Hzln_FQ13eof7Y7qiyd-38" value="&lt;div&gt;Section level&lt;/div&gt;&lt;div&gt;&lt;br&gt;&lt;/div&gt;&lt;div&gt;(AUTO vs None vs level)&lt;/div&gt;" style="rounded=0;whiteSpace=wrap;html=1;fontStyle=1" vertex="1" parent="5Hzln_FQ13eof7Y7qiyd-31">
          <mxGeometry x="110" y="40" width="80" height="80" as="geometry" />
        </mxCell>
        <mxCell id="5Hzln_FQ13eof7Y7qiyd-40" value="Traceability index" style="swimlane;whiteSpace=wrap;html=1;" vertex="1" parent="1">
          <mxGeometry x="-630" y="-190" width="267" height="220" as="geometry" />
        </mxCell>
        <mxCell id="5Hzln_FQ13eof7Y7qiyd-26" value="Node graph validations" style="rounded=0;whiteSpace=wrap;html=1;fontStyle=1" vertex="1" parent="5Hzln_FQ13eof7Y7qiyd-40">
          <mxGeometry x="20" y="40" width="80" height="80" as="geometry" />
        </mxCell>
        <mxCell id="51eqb1L8WukHZ06BBLaY-1" value="Free text" style="rounded=0;whiteSpace=wrap;html=1;fontStyle=1" vertex="1" parent="1">
          <mxGeometry x="290" y="-790" width="80" height="80" as="geometry" />
        </mxCell>
        <mxCell id="5Hzln_FQ13eof7Y7qiyd-44" value="Bibtex" style="rounded=0;whiteSpace=wrap;html=1;fontStyle=1" vertex="1" parent="1">
          <mxGeometry x="380" y="-790" width="80" height="80" as="geometry" />
        </mxCell>
        <mxCell id="HosL7ZGhVDv-kahlzNTk-9" value="Create document" style="rounded=0;whiteSpace=wrap;html=1;fontStyle=1" vertex="1" parent="1">
          <mxGeometry x="230" y="470" width="80" height="80" as="geometry" />
        </mxCell>
        <mxCell id="HosL7ZGhVDv-kahlzNTk-10" value="&lt;div&gt;Read&lt;/div&gt;&lt;div&gt;document&lt;br&gt;&lt;/div&gt;" style="rounded=0;whiteSpace=wrap;html=1;fontStyle=1" vertex="1" parent="1">
          <mxGeometry x="310" y="470" width="80" height="80" as="geometry" />
        </mxCell>
        <mxCell id="HosL7ZGhVDv-kahlzNTk-12" value="Delete document" style="rounded=0;whiteSpace=wrap;html=1;fontStyle=1" vertex="1" parent="1">
          <mxGeometry x="310" y="566" width="80" height="80" as="geometry" />
        </mxCell>
        <mxCell id="HosL7ZGhVDv-kahlzNTk-11" value="Update document" style="rounded=0;whiteSpace=wrap;html=1;fontStyle=1" vertex="1" parent="1">
          <mxGeometry x="230" y="566" width="80" height="80" as="geometry" />
        </mxCell>
      </root>
    </mxGraphModel>
  </diagram>
  <diagram id="VQ_LBOJAHuRUtiQ3O9RX" name="Archive">
    <mxGraphModel grid="1" page="0" gridSize="10" guides="1" tooltips="1" connect="1" arrows="1" fold="1" pageScale="1" pageWidth="827" pageHeight="1169" background="none" math="0" shadow="0">
      <root>
        <mxCell id="0" />
        <mxCell id="1" parent="0" />
        <mxCell id="CLNrkkGt-MQGziyyaXVf-8" style="edgeStyle=orthogonalEdgeStyle;rounded=0;orthogonalLoop=1;jettySize=auto;html=1;exitX=0.5;exitY=0;exitDx=0;exitDy=0;" edge="1" parent="1" source="CLNrkkGt-MQGziyyaXVf-1" target="CLNrkkGt-MQGziyyaXVf-7">
          <mxGeometry relative="1" as="geometry" />
        </mxCell>
        <mxCell id="CLNrkkGt-MQGziyyaXVf-1" value="Requirement" style="text;html=1;align=center;verticalAlign=middle;whiteSpace=wrap;rounded=0;fillColor=#f5f5f5;fontColor=#333333;strokeColor=#666666;fontStyle=1" vertex="1" parent="1">
          <mxGeometry x="160" y="240" width="80" height="80" as="geometry" />
        </mxCell>
        <mxCell id="CLNrkkGt-MQGziyyaXVf-2" value="Spec Object" style="text;html=1;align=center;verticalAlign=middle;whiteSpace=wrap;rounded=0;fillColor=#f5f5f5;fontColor=#333333;strokeColor=#666666;fontStyle=1" vertex="1" parent="1">
          <mxGeometry x="440" y="80" width="80" height="80" as="geometry" />
        </mxCell>
        <mxCell id="CLNrkkGt-MQGziyyaXVf-5" style="edgeStyle=orthogonalEdgeStyle;rounded=0;orthogonalLoop=1;jettySize=auto;html=1;exitX=0.5;exitY=0;exitDx=0;exitDy=0;entryX=0.5;entryY=1;entryDx=0;entryDy=0;" edge="1" parent="1" source="CLNrkkGt-MQGziyyaXVf-3" target="CLNrkkGt-MQGziyyaXVf-2">
          <mxGeometry relative="1" as="geometry" />
        </mxCell>
        <mxCell id="CLNrkkGt-MQGziyyaXVf-6" style="edgeStyle=orthogonalEdgeStyle;rounded=0;orthogonalLoop=1;jettySize=auto;html=1;exitX=0.75;exitY=0;exitDx=0;exitDy=0;entryX=0.5;entryY=1;entryDx=0;entryDy=0;" edge="1" parent="1" source="CLNrkkGt-MQGziyyaXVf-3" target="CLNrkkGt-MQGziyyaXVf-4">
          <mxGeometry relative="1" as="geometry" />
        </mxCell>
        <mxCell id="CLNrkkGt-MQGziyyaXVf-3" value="Spec Relation" style="text;html=1;align=center;verticalAlign=middle;whiteSpace=wrap;rounded=0;fillColor=#f5f5f5;fontColor=#333333;strokeColor=#666666;fontStyle=1" vertex="1" parent="1">
          <mxGeometry x="440" y="240" width="80" height="80" as="geometry" />
        </mxCell>
        <mxCell id="CLNrkkGt-MQGziyyaXVf-4" value="Spec Object" style="text;html=1;align=center;verticalAlign=middle;whiteSpace=wrap;rounded=0;fillColor=#f5f5f5;fontColor=#333333;strokeColor=#666666;fontStyle=1" vertex="1" parent="1">
          <mxGeometry x="640" y="80" width="80" height="80" as="geometry" />
        </mxCell>
        <mxCell id="CLNrkkGt-MQGziyyaXVf-7" value="Grammar Element" style="text;html=1;align=center;verticalAlign=middle;whiteSpace=wrap;rounded=0;fillColor=#f5f5f5;fontColor=#333333;strokeColor=#666666;fontStyle=1" vertex="1" parent="1">
          <mxGeometry x="160" y="80" width="80" height="80" as="geometry" />
        </mxCell>
        <mxCell id="oGeW5HH97y731k1HlrOQ-1" value="SDocNode" style="rounded=0;whiteSpace=wrap;html=1;fillColor=#f5f5f5;fontColor=#333333;strokeColor=#666666;fontStyle=1" vertex="1" parent="1">
          <mxGeometry x="225" y="-504" width="80" height="80" as="geometry" />
        </mxCell>
        <mxCell id="oGeW5HH97y731k1HlrOQ-2" style="edgeStyle=orthogonalEdgeStyle;rounded=0;orthogonalLoop=1;jettySize=auto;html=1;exitX=0.5;exitY=1;exitDx=0;exitDy=0;entryX=0.5;entryY=0;entryDx=0;entryDy=0;" edge="1" parent="1" source="oGeW5HH97y731k1HlrOQ-6" target="oGeW5HH97y731k1HlrOQ-8">
          <mxGeometry relative="1" as="geometry" />
        </mxCell>
        <mxCell id="oGeW5HH97y731k1HlrOQ-3" style="edgeStyle=orthogonalEdgeStyle;rounded=0;orthogonalLoop=1;jettySize=auto;html=1;exitX=0.5;exitY=1;exitDx=0;exitDy=0;entryX=0.5;entryY=0;entryDx=0;entryDy=0;" edge="1" parent="1" source="oGeW5HH97y731k1HlrOQ-6" target="oGeW5HH97y731k1HlrOQ-1">
          <mxGeometry relative="1" as="geometry" />
        </mxCell>
        <mxCell id="oGeW5HH97y731k1HlrOQ-4" style="edgeStyle=orthogonalEdgeStyle;rounded=0;orthogonalLoop=1;jettySize=auto;html=1;exitX=0.5;exitY=1;exitDx=0;exitDy=0;entryX=0.5;entryY=0;entryDx=0;entryDy=0;" edge="1" parent="1" source="oGeW5HH97y731k1HlrOQ-6" target="oGeW5HH97y731k1HlrOQ-7">
          <mxGeometry relative="1" as="geometry" />
        </mxCell>
        <mxCell id="oGeW5HH97y731k1HlrOQ-5" style="edgeStyle=orthogonalEdgeStyle;rounded=0;orthogonalLoop=1;jettySize=auto;html=1;exitX=0.5;exitY=1;exitDx=0;exitDy=0;entryX=0.5;entryY=0;entryDx=0;entryDy=0;" edge="1" parent="1" source="oGeW5HH97y731k1HlrOQ-6" target="oGeW5HH97y731k1HlrOQ-10">
          <mxGeometry relative="1" as="geometry" />
        </mxCell>
        <mxCell id="oGeW5HH97y731k1HlrOQ-6" value="SDocDocument" style="rounded=0;whiteSpace=wrap;html=1;fillColor=#f5f5f5;fontColor=#333333;strokeColor=#666666;fontStyle=1" vertex="1" parent="1">
          <mxGeometry x="305" y="-624" width="80" height="80" as="geometry" />
        </mxCell>
        <mxCell id="oGeW5HH97y731k1HlrOQ-7" value="SDocCompositeNode" style="rounded=0;whiteSpace=wrap;html=1;fillColor=#f5f5f5;fontColor=#333333;strokeColor=#666666;fontStyle=1" vertex="1" parent="1">
          <mxGeometry x="425" y="-504" width="80" height="80" as="geometry" />
        </mxCell>
        <mxCell id="oGeW5HH97y731k1HlrOQ-8" value="SDocSection" style="rounded=0;whiteSpace=wrap;html=1;fillColor=#f5f5f5;fontColor=#333333;strokeColor=#666666;fontStyle=1" vertex="1" parent="1">
          <mxGeometry x="65" y="-504" width="80" height="80" as="geometry" />
        </mxCell>
        <mxCell id="oGeW5HH97y731k1HlrOQ-9" style="edgeStyle=orthogonalEdgeStyle;rounded=0;orthogonalLoop=1;jettySize=auto;html=1;exitX=0.5;exitY=1;exitDx=0;exitDy=0;entryX=0.5;entryY=0;entryDx=0;entryDy=0;" edge="1" parent="1" source="oGeW5HH97y731k1HlrOQ-10" target="oGeW5HH97y731k1HlrOQ-6">
          <mxGeometry relative="1" as="geometry">
            <mxPoint x="345" y="-634" as="targetPoint" />
            <Array as="points">
              <mxPoint x="625" y="-344" />
              <mxPoint x="705" y="-344" />
              <mxPoint x="705" y="-684" />
              <mxPoint x="345" y="-684" />
            </Array>
          </mxGeometry>
        </mxCell>
        <mxCell id="oGeW5HH97y731k1HlrOQ-10" value="DocumentFromFile" style="rounded=0;whiteSpace=wrap;html=1;fillColor=#f5f5f5;fontColor=#333333;strokeColor=#666666;fontStyle=1" vertex="1" parent="1">
          <mxGeometry x="585" y="-504" width="80" height="80" as="geometry" />
        </mxCell>
        <mxCell id="_litiTdG11CFmH7AUJJe-1" value="" style="endArrow=none;dashed=1;html=1;rounded=0;" edge="1" parent="1">
          <mxGeometry width="50" height="50" relative="1" as="geometry">
            <mxPoint x="49" y="389" as="sourcePoint" />
            <mxPoint x="769" y="389" as="targetPoint" />
          </mxGeometry>
        </mxCell>
        <mxCell id="Hw4UplU35pylnMloX4WS-18" style="edgeStyle=none;curved=1;rounded=0;orthogonalLoop=1;jettySize=auto;html=1;exitX=1;exitY=0.5;exitDx=0;exitDy=0;entryX=0;entryY=0.5;entryDx=0;entryDy=0;fontSize=12;startSize=8;endSize=8;" edge="1" parent="1" source="Hw4UplU35pylnMloX4WS-1" target="Hw4UplU35pylnMloX4WS-17">
          <mxGeometry relative="1" as="geometry" />
        </mxCell>
        <mxCell id="Hw4UplU35pylnMloX4WS-1" value="&lt;div class=&quot;document&quot;&gt;&lt;p&gt;&amp;nbsp;Link requirements with source files&amp;nbsp;&lt;/p&gt;&lt;/div&gt;" style="text;html=1;align=center;verticalAlign=middle;whiteSpace=wrap;rounded=0;fillColor=#f5f5f5;fontColor=#333333;strokeColor=#666666;fontStyle=0" vertex="1" parent="1">
          <mxGeometry x="-520" y="40" width="224" height="64" as="geometry" />
        </mxCell>
        <mxCell id="Hw4UplU35pylnMloX4WS-2" value="    &lt;div class=&quot;document&quot;&gt;&lt;p&gt;&amp;nbsp;Annotate source file&amp;nbsp;&lt;/p&gt;&lt;/div&gt;" style="text;html=1;align=center;verticalAlign=middle;whiteSpace=wrap;rounded=0;fillColor=#f5f5f5;fontColor=#333333;strokeColor=#666666;fontStyle=0" vertex="1" parent="1">
          <mxGeometry x="-520" y="160" width="224" height="64" as="geometry" />
        </mxCell>
        <mxCell id="Hw4UplU35pylnMloX4WS-3" value="&amp;nbsp;Single-line code marker&amp;nbsp;" style="text;html=1;align=center;verticalAlign=middle;whiteSpace=wrap;rounded=0;fillColor=#f5f5f5;fontColor=#333333;strokeColor=#666666;fontStyle=0" vertex="1" parent="1">
          <mxGeometry x="-520" y="240" width="224" height="64" as="geometry" />
        </mxCell>
        <mxCell id="Hw4UplU35pylnMloX4WS-4" value="&amp;nbsp;Generate source file traceability&amp;nbsp;" style="text;html=1;align=center;verticalAlign=middle;whiteSpace=wrap;rounded=0;fillColor=#f5f5f5;fontColor=#333333;strokeColor=#666666;fontStyle=0" vertex="1" parent="1">
          <mxGeometry x="-520" y="480" width="224" height="64" as="geometry" />
        </mxCell>
        <mxCell id="Hw4UplU35pylnMloX4WS-5" value="&amp;nbsp;Generate source coverage&amp;nbsp;" style="text;html=1;align=center;verticalAlign=middle;whiteSpace=wrap;rounded=0;fillColor=#f5f5f5;fontColor=#333333;strokeColor=#666666;fontStyle=0" vertex="1" parent="1">
          <mxGeometry x="-520" y="400" width="224" height="64" as="geometry" />
        </mxCell>
        <mxCell id="Hw4UplU35pylnMloX4WS-12" style="edgeStyle=none;curved=1;rounded=0;orthogonalLoop=1;jettySize=auto;html=1;exitX=1;exitY=0.5;exitDx=0;exitDy=0;entryX=0;entryY=0.5;entryDx=0;entryDy=0;fontSize=12;startSize=8;endSize=8;" edge="1" parent="1" source="Hw4UplU35pylnMloX4WS-6" target="Hw4UplU35pylnMloX4WS-1">
          <mxGeometry relative="1" as="geometry" />
        </mxCell>
        <mxCell id="Hw4UplU35pylnMloX4WS-13" style="edgeStyle=none;curved=1;rounded=0;orthogonalLoop=1;jettySize=auto;html=1;exitX=1;exitY=0.5;exitDx=0;exitDy=0;entryX=0;entryY=0.5;entryDx=0;entryDy=0;fontSize=12;startSize=8;endSize=8;" edge="1" parent="1" source="Hw4UplU35pylnMloX4WS-6" target="Hw4UplU35pylnMloX4WS-2">
          <mxGeometry relative="1" as="geometry" />
        </mxCell>
        <mxCell id="Hw4UplU35pylnMloX4WS-14" style="edgeStyle=none;curved=1;rounded=0;orthogonalLoop=1;jettySize=auto;html=1;exitX=1;exitY=0.5;exitDx=0;exitDy=0;entryX=0;entryY=0.5;entryDx=0;entryDy=0;fontSize=12;startSize=8;endSize=8;" edge="1" parent="1" source="Hw4UplU35pylnMloX4WS-6" target="Hw4UplU35pylnMloX4WS-3">
          <mxGeometry relative="1" as="geometry" />
        </mxCell>
        <mxCell id="Hw4UplU35pylnMloX4WS-15" style="edgeStyle=none;curved=1;rounded=0;orthogonalLoop=1;jettySize=auto;html=1;exitX=1;exitY=0.5;exitDx=0;exitDy=0;entryX=0;entryY=0.5;entryDx=0;entryDy=0;fontSize=12;startSize=8;endSize=8;" edge="1" parent="1" source="Hw4UplU35pylnMloX4WS-6" target="Hw4UplU35pylnMloX4WS-5">
          <mxGeometry relative="1" as="geometry" />
        </mxCell>
        <mxCell id="Hw4UplU35pylnMloX4WS-16" style="edgeStyle=none;curved=1;rounded=0;orthogonalLoop=1;jettySize=auto;html=1;exitX=1;exitY=0.5;exitDx=0;exitDy=0;entryX=0;entryY=0.5;entryDx=0;entryDy=0;fontSize=12;startSize=8;endSize=8;" edge="1" parent="1" source="Hw4UplU35pylnMloX4WS-6" target="Hw4UplU35pylnMloX4WS-4">
          <mxGeometry relative="1" as="geometry" />
        </mxCell>
        <mxCell id="Hw4UplU35pylnMloX4WS-6" value="&amp;nbsp;Traceability between requirements and source code&amp;nbsp;" style="text;html=1;align=center;verticalAlign=middle;whiteSpace=wrap;rounded=0;fillColor=#f5f5f5;fontColor=#333333;strokeColor=#666666;fontStyle=0" vertex="1" parent="1">
          <mxGeometry x="-860" y="160" width="224" height="64" as="geometry" />
        </mxCell>
        <mxCell id="Hw4UplU35pylnMloX4WS-9" style="edgeStyle=none;curved=1;rounded=0;orthogonalLoop=1;jettySize=auto;html=1;exitX=1;exitY=0.5;exitDx=0;exitDy=0;entryX=0;entryY=0.5;entryDx=0;entryDy=0;fontSize=12;startSize=8;endSize=8;" edge="1" parent="1" source="Hw4UplU35pylnMloX4WS-7" target="Hw4UplU35pylnMloX4WS-6">
          <mxGeometry relative="1" as="geometry" />
        </mxCell>
        <mxCell id="Hw4UplU35pylnMloX4WS-7" value="&amp;nbsp;Requirements to source code traceability&amp;nbsp;" style="text;html=1;align=center;verticalAlign=middle;whiteSpace=wrap;rounded=0;fillColor=#f5f5f5;fontColor=#333333;strokeColor=#666666;fontStyle=0" vertex="1" parent="1">
          <mxGeometry x="-1180" y="70" width="224" height="64" as="geometry" />
        </mxCell>
        <mxCell id="Hw4UplU35pylnMloX4WS-10" style="edgeStyle=none;curved=1;rounded=0;orthogonalLoop=1;jettySize=auto;html=1;exitX=1;exitY=0.5;exitDx=0;exitDy=0;fontSize=12;startSize=8;endSize=8;" edge="1" parent="1" source="Hw4UplU35pylnMloX4WS-8">
          <mxGeometry relative="1" as="geometry">
            <mxPoint x="-860" y="192" as="targetPoint" />
          </mxGeometry>
        </mxCell>
        <mxCell id="Hw4UplU35pylnMloX4WS-8" value="&lt;div&gt;&amp;nbsp;Non-intrusive links in source code&amp;nbsp;&lt;/div&gt;" style="text;html=1;align=center;verticalAlign=middle;whiteSpace=wrap;rounded=0;fillColor=#f5f5f5;fontColor=#333333;strokeColor=#666666;fontStyle=0" vertex="1" parent="1">
          <mxGeometry x="-1180" y="160" width="224" height="64" as="geometry" />
        </mxCell>
        <mxCell id="Hw4UplU35pylnMloX4WS-17" value="FileTraceabilityIndex" style="text;html=1;align=center;verticalAlign=middle;whiteSpace=wrap;rounded=0;fillColor=#f5f5f5;fontColor=#333333;strokeColor=#666666;fontStyle=0" vertex="1" parent="1">
          <mxGeometry x="-220" width="224" height="64" as="geometry" />
        </mxCell>
      </root>
    </mxGraphModel>
  </diagram>
</mxfile>
